<?xml version="1.0" encoding="UTF-8" standalone="no"?>
<!-- Created with Inkscape (http://www.inkscape.org/) -->

<svg
   xmlns:dc="http://purl.org/dc/elements/1.1/"
   xmlns:cc="http://creativecommons.org/ns#"
   xmlns:rdf="http://www.w3.org/1999/02/22-rdf-syntax-ns#"
   xmlns:svg="http://www.w3.org/2000/svg"
   xmlns="http://www.w3.org/2000/svg"
   xmlns:sodipodi="http://sodipodi.sourceforge.net/DTD/sodipodi-0.dtd"
   xmlns:inkscape="http://www.inkscape.org/namespaces/inkscape"
   width="88.430702mm"
   height="42.916229mm"
   viewBox="0 0 313.33713 152.06538"
   id="svg9228"
   version="1.1"
   inkscape:version="0.91 r13725"
   sodipodi:docname="7-types-jobs.svg">
  <defs
     id="defs9230">
    <clipPath
       clipPathUnits="userSpaceOnUse"
       id="clipPath5317">
      <path
         d="m 0,0 595.276,0 0,841.89 L 0,841.89 0,0 Z"
         id="path5319"
         inkscape:connector-curvature="0" />
    </clipPath>
    <clipPath
       clipPathUnits="userSpaceOnUse"
       id="clipPath6027">
      <path
         d="m 0,0 595.276,0 0,841.89 L 0,841.89 0,0 Z"
         id="path6029"
         inkscape:connector-curvature="0" />
    </clipPath>
    <clipPath
       clipPathUnits="userSpaceOnUse"
       id="clipPath6055">
      <path
         d="m 0,0 595.276,0 0,841.89 L 0,841.89 0,0 Z"
         id="path6057"
         inkscape:connector-curvature="0" />
    </clipPath>
    <clipPath
       clipPathUnits="userSpaceOnUse"
       id="clipPath6083">
      <path
         d="m 0,0 595.276,0 0,841.89 L 0,841.89 0,0 Z"
         id="path6085"
         inkscape:connector-curvature="0" />
    </clipPath>
    <clipPath
       clipPathUnits="userSpaceOnUse"
       id="clipPath6099">
      <path
         d="m 0,0 595.276,0 0,841.89 L 0,841.89 0,0 Z"
         id="path6101"
         inkscape:connector-curvature="0" />
    </clipPath>
    <clipPath
       clipPathUnits="userSpaceOnUse"
       id="clipPath6119">
      <path
         d="m 0,0 595.276,0 0,841.89 L 0,841.89 0,0 Z"
         id="path6121"
         inkscape:connector-curvature="0" />
    </clipPath>
    <clipPath
       clipPathUnits="userSpaceOnUse"
       id="clipPath6151">
      <path
         d="m 0,0 595.276,0 0,841.89 L 0,841.89 0,0 Z"
         id="path6153"
         inkscape:connector-curvature="0" />
    </clipPath>
    <clipPath
       clipPathUnits="userSpaceOnUse"
       id="clipPath6169">
      <path
         d="m 0,0 595.276,0 0,841.89 L 0,841.89 0,0 Z"
         id="path6171"
         inkscape:connector-curvature="0" />
    </clipPath>
    <clipPath
       clipPathUnits="userSpaceOnUse"
       id="clipPath6197">
      <path
         d="m 0,0 595.276,0 0,841.89 L 0,841.89 0,0 Z"
         id="path6199"
         inkscape:connector-curvature="0" />
    </clipPath>
    <clipPath
       clipPathUnits="userSpaceOnUse"
       id="clipPath6217">
      <path
         d="m 0,0 595.276,0 0,841.89 L 0,841.89 0,0 Z"
         id="path6219"
         inkscape:connector-curvature="0" />
    </clipPath>
  </defs>
  <sodipodi:namedview
     id="base"
     pagecolor="#ffffff"
     bordercolor="#666666"
     borderopacity="1.0"
     inkscape:pageopacity="0.0"
     inkscape:pageshadow="2"
     inkscape:zoom="2.6215945"
     inkscape:cx="237.96744"
     inkscape:cy="52.189259"
     inkscape:document-units="px"
     inkscape:current-layer="layer1"
     showgrid="false"
     fit-margin-top="0"
     fit-margin-left="0"
     fit-margin-right="0"
     fit-margin-bottom="0"
     inkscape:window-width="1920"
     inkscape:window-height="1056"
     inkscape:window-x="0"
     inkscape:window-y="24"
     inkscape:window-maximized="1" />
  <metadata
     id="metadata9233">
    <rdf:RDF>
      <cc:Work
         rdf:about="">
        <dc:format>image/svg+xml</dc:format>
        <dc:type
           rdf:resource="http://purl.org/dc/dcmitype/StillImage" />
        <dc:title></dc:title>
      </cc:Work>
    </rdf:RDF>
  </metadata>
  <g
     inkscape:label="Layer 1"
     inkscape:groupmode="layer"
     id="layer1"
     transform="translate(-28.720149,-382.75968)">
    <g
       id="g10469">
      <g
         transform="matrix(1.25,0,0,-1.25,-24.429726,1209.6493)"
         id="g5313">
        <g
           clip-path="url(#clipPath5317)"
           id="g5315">
          <g
             transform="translate(201.7564,539.8594)"
             id="g5321">
            <path
               inkscape:connector-curvature="0"
               id="path5323"
               style="fill:#54616c;fill-opacity:1;fill-rule:nonzero;stroke:none"
               d="M 0,0 C 0.552,0 1,0.449 1,1 1,1.553 0.552,2 0,2 -0.552,2 -1,1.553 -1,1 -1,0.449 -0.552,0 0,0" />
          </g>
        </g>
      </g>
      <g
         id="g10291">
        <path
           inkscape:connector-curvature="0"
           id="path6017"
           style="fill:#f7f6f5;fill-opacity:1;fill-rule:nonzero;stroke:none"
           d="m 144.06015,455.67718 c 20.13625,0 36.45875,-16.32375 36.45875,-36.45875 0,-20.13625 -16.3225,-36.45875 -36.45875,-36.45875 -20.13625,0 -36.45875,16.3225 -36.45875,36.45875 0,20.135 16.3225,36.45875 36.45875,36.45875" />
        <g
           id="g10280">
          <text
             y="431.83643"
             x="120.24252"
             id="text6019"
             style="font-variant:normal;font-weight:800;font-stretch:normal;font-size:6.83737516px;font-family:'Montserrat Extra Bold';-inkscape-font-specification:Montserrat-ExtraBold;writing-mode:lr-tb;fill:#333333;fill-opacity:1;fill-rule:nonzero;stroke:none;">
            <tspan
               id="tspan6021"
               sodipodi:role="line"
               y="431.83643"
               x="120.24252 121.97921 126.01327 130.6832 134.84715 136.34454 141.71872 144.75452 147.82449 150.03979 153.6978 157.84808 162.48383 166.14182">‘The Artisans’</tspan>
          </text>
          <g
             id="g10238">
            <g
               id="g6031"
               transform="matrix(1.25,0,0,-1.25,137.7424,405.41168)"
               style="fill:#333333">
              <path
                 d="m 0,0 c 0.545,0.073 1.09,-0.114 1.476,-0.5 l 0.976,-0.976 0.923,0.919 -1.334,1.33 c -0.207,0.207 -0.207,0.545 0,0.752 0.208,0.207 0.545,0.207 0.753,0 L 4.127,0.191 5.05,1.11 4.07,2.09 C 3.684,2.476 3.497,3.025 3.57,3.566 3.733,4.802 3.339,6.096 2.391,7.047 1.423,8.015 0.098,8.405 -1.159,8.218 -1.358,8.19 -1.439,7.942 -1.297,7.799 l 1.256,-1.256 c 0.598,-0.598 0.598,-1.566 0,-2.16 L -0.813,3.611 c -0.598,-0.598 -1.566,-0.598 -2.16,0 l -1.26,1.257 C -4.375,5.01 -4.619,4.929 -4.652,4.729 -4.839,3.473 -4.449,2.147 -3.481,1.179 -2.529,0.232 -1.236,-0.163 0,0"
                 style="fill:#333333;fill-opacity:1;fill-rule:nonzero;stroke:none"
                 id="path6033"
                 inkscape:connector-curvature="0" />
            </g>
            <g
               id="g6035"
               transform="matrix(1.25,0,0,-1.25,147.51202,407.4803)"
               style="fill:#333333">
              <path
                 d="m 0,0 -0.923,-0.919 5.481,-5.482 c 0.208,-0.207 0.208,-0.544 0,-0.752 -0.207,-0.207 -0.545,-0.207 -0.752,0 L -1.675,-1.671 -2.598,-2.59 3.05,-8.239 c 0.715,-0.715 1.874,-0.711 2.59,0.005 0.716,0.715 0.716,1.874 0.004,2.59 L 0,0 Z"
                 style="fill:#333333;fill-opacity:1;fill-rule:nonzero;stroke:none"
                 id="path6037"
                 inkscape:connector-curvature="0" />
            </g>
            <g
               id="g6039"
               transform="matrix(1.25,0,0,-1.25,150.16027,402.90567)"
               style="fill:#333333">
              <path
                 d="m 0,0 2.436,0 2.435,4.867 -1.215,1.216 -4.872,-2.431 0,-2.436 -6.62,-6.6 -1.191,1.187 -4.799,-4.798 c -1,-1 -1,-2.619 0,-3.619 1.001,-1 2.619,-1 3.619,0 L -5.408,-7.816 -6.624,-6.6 0,0 Z"
                 style="fill:#333333;fill-opacity:1;fill-rule:nonzero;stroke:none"
                 id="path6041"
                 inkscape:connector-curvature="0" />
            </g>
          </g>
        </g>
      </g>
      <g
         id="g10271">
        <g
           id="g6043"
           transform="matrix(1.25,0,0,-1.25,65.178899,455.67718)"
           style="fill:#f7f6f5">
          <path
             d="M 0,0 C 16.109,0 29.167,13.059 29.167,29.167 29.167,45.276 16.109,58.334 0,58.334 -16.109,58.334 -29.167,45.276 -29.167,29.167 -29.167,13.059 -16.109,0 0,0"
             style="fill:#f7f6f5;fill-opacity:1;fill-rule:nonzero;stroke:none"
             id="path6045"
             inkscape:connector-curvature="0" />
        </g>
        <g
           id="g10265">
          <text
             y="431.83643"
             x="37.368149"
             id="text6047"
             style="font-variant:normal;font-weight:800;font-stretch:normal;font-size:6.83737516px;font-family:'Montserrat Extra Bold';-inkscape-font-specification:Montserrat-ExtraBold;writing-mode:lr-tb;fill:#333333;fill-opacity:1;fill-rule:nonzero;stroke:none;">
            <tspan
               id="tspan6049"
               sodipodi:role="line"
               y="431.83643"
               x="37.368149 39.104843 43.138893 47.808819 51.972782 57.03244 61.1964 65.832146 69.996101 72.949165 77.099449 80.162598 84.559029 87.594826 91.252815">‘TheGenerators’</tspan>
          </text>
          <g
             style="fill:#333333"
             transform="matrix(1.25,0,0,-1.25,72.891399,399.55305)"
             id="g6059">
            <path
               inkscape:connector-curvature="0"
               id="path6061"
               style="fill:#333333;fill-opacity:1;fill-rule:nonzero;stroke:none"
               d="m 0,0 c 0.453,0 0.896,0.119 1.285,0.352 l 3.692,2.182 0,1.02 -4.154,-2.42 C 0.508,0.951 0.151,0.855 -0.21,0.86 l -5.498,0.064 c -0.275,0.1 -0.494,0.165 -0.576,0.196 -1.72,0.385 -3.065,0.234 -3.98,-0.013 -0.686,-0.183 -1.418,-0.115 -2.067,0.183 l -4.986,2.287 0,-9.139 0.517,-0.284 c 0.764,-0.416 1.372,-1.061 1.752,-1.843 l -0.293,-0.238 c -0.786,-0.571 -0.956,-1.678 -0.439,-2.46 0.288,-0.38 0.695,-0.622 1.162,-0.705 0.055,-0.004 0.137,-0.009 0.197,-0.009 0.169,-0.009 0.333,0.009 0.475,0.032 0.01,-0.393 0.101,-0.732 0.334,-1.052 0.311,-0.434 0.805,-0.631 1.336,-0.658 0.137,-0.01 0.279,-0.014 0.389,-0.023 -0.051,-0.417 0.068,-0.842 0.329,-1.19 0.288,-0.379 0.695,-0.622 1.162,-0.704 0.055,-0.005 0.137,-0.009 0.196,-0.009 0.417,-0.023 0.814,0.096 1.135,0.329 l 0.173,0.133 c 0.041,-0.252 0.115,-0.48 0.27,-0.686 0.234,-0.32 0.586,-0.535 1.002,-0.613 0.055,-0.005 0.11,-0.005 0.169,-0.009 0.334,-0.019 0.673,0.077 0.965,0.283 l 0.028,0 0.206,-0.288 c 0.361,-0.521 1.111,-0.645 1.632,-0.284 0.435,0.312 0.609,0.92 0.412,1.405 l 0.037,-0.055 c 0.343,-0.508 0.992,-0.727 1.559,-0.494 0.627,0.256 0.878,0.933 0.714,1.514 0.421,-0.471 1.143,-0.563 1.665,-0.201 l 0.027,0.027 c 0.522,0.361 0.672,1.052 0.394,1.601 0.452,-0.416 1.175,-0.48 1.696,-0.119 0.609,0.444 0.769,1.299 0.325,1.912 l -0.649,0.928 1.413,1.647 c 0.371,0.434 0.814,0.8 1.308,1.088 l 0.696,0.403 0,1.089 L 4.016,-5.64 C 3.467,-5.951 2.973,-6.353 2.561,-6.833 L 1.043,-8.594 c -0.453,0.416 -1.176,0.48 -1.697,0.119 -0.608,-0.444 -0.768,-1.299 -0.325,-1.912 l 0.023,-0.06 -0.027,0 c -0.43,0.302 -1.016,0.334 -1.478,0.023 l -0.027,-0.027 C -2.895,-10.735 -3.087,-11.229 -3,-11.709 l -0.147,-0.105 c -0.407,0.214 -0.91,0.214 -1.317,-0.069 -0.375,-0.261 -0.567,-0.723 -0.535,-1.143 l -0.403,-0.257 c -0.301,0.073 -0.64,0.005 -0.901,-0.173 -0.32,-0.234 -0.507,-0.618 -0.498,-0.979 l -0.202,-0.128 c -0.119,-0.106 -0.315,-0.151 -0.48,-0.115 -0.164,0.037 -0.329,0.128 -0.434,0.275 -0.106,0.119 -0.151,0.315 -0.115,0.48 0.037,0.165 0.128,0.329 0.275,0.435 l 2.181,1.642 c 0.115,0.077 0.179,0.187 0.183,0.324 0.014,0.252 -0.201,0.467 -0.448,0.467 -0.096,0 -0.174,-0.023 -0.256,-0.069 l -3.485,-2.525 c -0.201,-0.128 -0.43,-0.201 -0.677,-0.16 -0.247,0.042 -0.467,0.165 -0.595,0.366 -0.288,0.38 -0.201,0.961 0.206,1.244 l 4.153,2.964 c 0.092,0.083 0.156,0.197 0.156,0.348 0.004,0.238 -0.192,0.439 -0.43,0.448 -0.138,0.005 -0.247,-0.046 -0.339,-0.151 l -4.066,-2.941 c -0.114,-0.05 -0.174,-0.132 -0.261,-0.21 -0.489,-0.311 -1.212,-0.243 -1.472,0.105 -0.261,0.375 -0.206,0.878 0.118,1.194 l 0.408,0.283 4.518,3.083 c 0.115,0.078 0.179,0.188 0.183,0.325 0.01,0.151 -0.063,0.293 -0.187,0.38 -0.16,0.114 -0.32,0.118 -0.49,0.018 l -4.839,-3.289 c -0.032,-0.055 -0.087,-0.077 -0.119,-0.105 l -0.466,-0.339 c -0.38,-0.288 -0.961,-0.201 -1.244,0.206 -0.288,0.38 -0.201,0.961 0.206,1.244 l 9.125,6.72 c 0.731,-0.431 1.271,-1.295 1.271,-1.295 0.897,-2.808 2.013,-2.831 2.689,-2.493 0.353,0.174 0.513,0.59 0.389,0.965 -0.356,1.084 -0.562,3.184 -0.562,3.184 -0.252,0.544 -1.057,1.116 -1.953,1.582 L -0.928,-0.018 0,0 Z" />
          </g>
        </g>
      </g>
      <g
         id="g10448">
        <g
           id="g6063"
           transform="matrix(1.25,0,0,-1.25,183.86502,523.8873)"
           style="fill:#f7f6f5">
          <path
             d="M 0,0 C 16.109,0 29.167,13.059 29.167,29.167 29.167,45.276 16.109,58.334 0,58.334 -16.109,58.334 -29.167,45.276 -29.167,29.167 -29.167,13.059 -16.109,0 0,0"
             style="fill:#f7f6f5;fill-opacity:1;fill-rule:nonzero;stroke:none"
             id="path6065"
             inkscape:connector-curvature="0" />
        </g>
        <g
           id="g10430">
          <text
             y="500.04642"
             x="157.35002"
             id="text6067"
             style="font-variant:normal;font-weight:800;font-stretch:normal;font-size:6.83737516px;font-family:'Montserrat Extra Bold';-inkscape-font-specification:Montserrat-ExtraBold;writing-mode:lr-tb;fill:#333333;fill-opacity:1;fill-rule:nonzero;stroke:none;">
            <tspan
               id="tspan6069"
               sodipodi:role="line"
               y="500.04642"
               x="157.35002 159.08672 163.12076 167.7907 171.95465 173.45204 178.66212 182.82608 186.48407 188.69939 193.15051 197.78625 201.95021 204.98601 208.64401">‘The Designers’</tspan>
          </text>
          <g
             style="fill:#333333"
             id="g10388">
            <g
               id="g10367"
               style="fill:#333333">
              <g
                 transform="matrix(1.25,0,0,-1.25,172.7179,480.62818)"
                 id="g6071"
                 style="fill:#333333">
                <path
                   inkscape:connector-curvature="0"
                   id="path6073"
                   style="fill:#333333;fill-opacity:1;fill-rule:nonzero;stroke:none"
                   d="M 0,0 12.448,12.449 14.909,9.988 2.46,-2.46 0,0 Z" />
              </g>
              <g
                 transform="matrix(1.25,0,0,-1.25,177.04165,487.42805)"
                 id="g6075"
                 style="fill:#333333">
                <path
                   inkscape:connector-curvature="0"
                   id="path6077"
                   style="fill:#333333;fill-opacity:1;fill-rule:nonzero;stroke:none"
                   d="m 0,0 15.497,0 0,15.914 L 0,0 Z m 12.86,2.637 -6.611,0 6.611,6.789 0,-6.789 z" />
              </g>
              <g
                 transform="matrix(1.25,0,0,-1.25,-24.429726,1209.6493)"
                 id="g6079"
                 style="fill:#333333">
                <g
                   clip-path="url(#clipPath6083)"
                   id="g6081"
                   style="fill:#333333">
                  <g
                     transform="translate(157.8517,588.8828)"
                     id="g6087"
                     style="fill:#333333">
                    <path
                       inkscape:connector-curvature="0"
                       id="path6089"
                       style="fill:#333333;fill-opacity:1;fill-rule:nonzero;stroke:none"
                       d="m 0,0 c -0.165,0.165 -0.165,0.432 0,0.597 0.165,0.164 0.432,0.164 0.597,0 L 1.348,-0.154 2.382,0.88 1.631,1.631 c -0.165,0.165 -0.165,0.432 0,0.596 0.165,0.165 0.432,0.165 0.596,0 L 2.978,1.476 4.012,2.51 3.261,3.261 c -0.165,0.165 -0.165,0.432 0,0.597 0.165,0.165 0.432,0.165 0.597,0 L 4.609,3.107 5.643,4.141 4.892,4.892 c -0.165,0.165 -0.165,0.432 0,0.597 0.165,0.164 0.432,0.164 0.597,0 L 6.24,4.738 7.274,5.772 6.523,6.523 c -0.165,0.164 -0.165,0.432 0,0.597 0.164,0.164 0.432,0.164 0.596,0 l 0.751,-0.752 1.733,1.733 -10.857,0 0,-10.857 2.005,2.005 L 0,0 Z" />
                  </g>
                </g>
              </g>
              <g
                 transform="matrix(1.25,0,0,-1.25,172.24465,481.64693)"
                 id="g6091"
                 style="fill:#333333">
                <path
                   inkscape:connector-curvature="0"
                   id="path6093"
                   style="fill:#333333;fill-opacity:1;fill-rule:nonzero;stroke:none"
                   d="M 0,0 -0.742,-2.766 2.024,-2.024 1.012,-1.012 0,0 Z" />
              </g>
            </g>
            <g
               style="fill:#333333"
               id="g6103"
               transform="matrix(1.25,0,0,-1.25,192.10027,467.39755)">
              <path
                 d="m 0,0 0.92,0.92 c 0.141,0.141 0.218,0.327 0.218,0.526 0,0.198 -0.077,0.384 -0.218,0.525 l -1.41,1.41 c -0.14,0.14 -0.327,0.218 -0.525,0.218 -0.199,0 -0.385,-0.078 -0.526,-0.218 L -2.461,2.461 -1.23,1.23 0,0 Z"
                 style="fill:#333333;fill-opacity:1;fill-rule:nonzero;stroke:none"
                 id="path6105"
                 inkscape:connector-curvature="0" />
            </g>
          </g>
        </g>
      </g>
      <g
         id="g10415">
        <g
           id="g6107"
           transform="matrix(1.25,0,0,-1.25,261.37015,523.8873)"
           style="fill:#f7f6f5">
          <path
             d="M 0,0 C 16.109,0 29.167,13.059 29.167,29.167 29.167,45.276 16.109,58.334 0,58.334 -16.109,58.334 -29.167,45.276 -29.167,29.167 -29.167,13.059 -16.109,0 0,0"
             style="fill:#f7f6f5;fill-opacity:1;fill-rule:nonzero;stroke:none"
             id="path6109"
             inkscape:connector-curvature="0" />
        </g>
        <g
           id="g10403">
          <text
             y="500.04642"
             x="229.02303"
             id="text6111"
             style="font-variant:normal;font-weight:800;font-stretch:normal;font-size:6.83737516px;font-family:'Montserrat Extra Bold';-inkscape-font-specification:Montserrat-ExtraBold;writing-mode:lr-tb;fill:#333333;fill-opacity:1;fill-rule:nonzero;stroke:none;">
            <tspan
               id="tspan6113"
               sodipodi:role="line"
               y="500.04642"
               x="229.02303 230.62297 234.52026 239.05345 243.08066 244.4413 248.17451 252.20172 255.90758 260.44077 264.93976 269.19943 271.35321 275.61288 279.92728 282.00583 285.5271 288.46033 291.98157">‘The Technologists’</tspan>
          </text>
          <g
             style="fill:#333333"
             transform="matrix(1.25,0,0,-1.25,277.24402,485.63043)"
             id="g6123">
            <path
               inkscape:connector-curvature="0"
               id="path6125"
               style="fill:#333333;fill-opacity:1;fill-rule:nonzero;stroke:none"
               d="m 0,0 -0.578,0 0,15.007 c 0,1.274 -1.034,2.308 -2.308,2.308 l -19.623,0 c -1.277,0 -2.311,-1.034 -2.311,-2.308 l 0,-15.007 -0.575,0 c -0.64,0 -1.155,-0.516 -1.155,-1.152 0,-0.637 0.515,-1.156 1.155,-1.156 l 25.395,0 c 0.637,0 1.152,0.519 1.152,1.156 C 1.152,-0.516 0.637,0 0,0 m -22.509,15.007 19.623,0 0,-12.699 -19.623,0 0,12.699 z" />
          </g>
          <g
             transform="matrix(1.25,0,0,-1.25,258.07677,478.17718)"
             id="g6127">
            <path
               inkscape:connector-curvature="0"
               id="path6129"
               style="fill:#ffffff;fill-opacity:1;fill-rule:nonzero;stroke:none"
               d="m 0,0 c -0.145,0 -0.29,0.049 -0.41,0.148 l -2.476,2.055 c -0.147,0.123 -0.232,0.303 -0.232,0.495 0,0.191 0.085,0.372 0.232,0.494 L -0.41,5.247 C -0.137,5.474 0.268,5.436 0.495,5.164 0.721,4.89 0.684,4.485 0.411,4.258 L -1.47,2.698 0.411,1.137 C 0.684,0.91 0.721,0.505 0.495,0.232 0.368,0.079 0.184,0 0,0" />
          </g>
          <g
             transform="matrix(1.25,0,0,-1.25,264.66365,478.17718)"
             id="g6131">
            <path
               inkscape:connector-curvature="0"
               id="path6133"
               style="fill:#ffffff;fill-opacity:1;fill-rule:nonzero;stroke:none"
               d="m 0,0 c -0.185,0 -0.368,0.079 -0.495,0.232 -0.226,0.273 -0.189,0.679 0.084,0.905 L 1.47,2.698 -0.411,4.259 c -0.273,0.226 -0.31,0.631 -0.084,0.905 0.227,0.272 0.632,0.31 0.905,0.083 L 2.886,3.192 C 3.033,3.07 3.118,2.889 3.118,2.698 3.118,2.507 3.033,2.326 2.886,2.203 L 0.41,0.148 C 0.29,0.049 0.144,0 0,0" />
          </g>
          <g
             transform="matrix(1.25,0,0,-1.25,259.8949,480.70405)"
             id="g6135">
            <path
               inkscape:connector-curvature="0"
               id="path6137"
               style="fill:#ffffff;fill-opacity:1;fill-rule:nonzero;stroke:none"
               d="M 0,0 C -0.059,0 -0.119,0.009 -0.179,0.026 -0.52,0.124 -0.716,0.48 -0.617,0.821 l 2.36,8.153 C 1.842,9.315 2.198,9.511 2.539,9.413 2.88,9.314 3.076,8.958 2.978,8.617 L 0.617,0.464 C 0.536,0.183 0.279,0 0,0" />
          </g>
        </g>
      </g>
      <g
         style="fill:#f7f6f5"
         transform="matrix(1.25,0,0,-1.25,106.3889,523.8873)"
         id="g6139">
        <path
           inkscape:connector-curvature="0"
           id="path6141"
           style="fill:#f7f6f5;fill-opacity:1;fill-rule:nonzero;stroke:none"
           d="M 0,0 C 16.109,0 29.167,13.059 29.167,29.167 29.167,45.276 16.109,58.334 0,58.334 -16.109,58.334 -29.167,45.276 -29.167,29.167 -29.167,13.059 -16.109,0 0,0" />
      </g>
      <text
         y="500.04642"
         x="74.305023"
         id="text6143"
         style="font-variant:normal;font-weight:800;font-stretch:normal;font-size:6.83737516px;font-family:'Montserrat Extra Bold';-inkscape-font-specification:Montserrat-ExtraBold;writing-mode:lr-tb;fill:#333333;fill-opacity:1;fill-rule:nonzero;stroke:none;">
        <tspan
           id="tspan6145"
           sodipodi:role="line"
           y="500.04642"
           x="74.305023 76.041718 80.075768 84.745697 88.90966 90.407043 95.049622 99.446053 103.84248 106.87828 111.58239 113.7977 118.43344 122.58372 125.64687 130.0433 133.0791 136.73709">‘The Coordinators’</tspan>
      </text>
      <g
         style="fill:#333333"
         id="g10331">
        <g
           style="fill:#333333"
           id="g6147"
           transform="matrix(1.25,0,0,-1.25,-24.429726,1209.6493)">
          <g
             style="fill:#333333"
             id="g6149"
             clip-path="url(#clipPath6151)">
            <g
               style="fill:#333333"
               id="g6155"
               transform="translate(107.6654,597.4)">
              <path
                 d="m 0,0 -8.243,0 c -1.451,0 -2.632,-1.18 -2.632,-2.631 l 0,-14.361 c 0,-1.451 1.181,-2.631 2.632,-2.631 l 10.466,0 c 1.451,0 2.631,1.18 2.631,2.631 l 0,11.567 L 0,0 Z M 3.487,-16.992 C 3.486,-17.689 2.92,-18.256 2.223,-18.256 l -10.466,0 c -0.697,0 -1.264,0.567 -1.264,1.264 l 0,14.361 c 0,0.697 0.567,1.264 1.264,1.264 l 7.254,0 0,-5.003 4.476,0 0,-10.622 z"
                 style="fill:#333333;fill-opacity:1;fill-rule:nonzero;stroke:none"
                 id="path6157"
                 inkscape:connector-curvature="0" />
            </g>
          </g>
        </g>
        <path
           d="m 104.54527,481.07555 7.9625,0 0,1.71 -7.9625,0 0,-1.71 z"
           style="fill:#333333;fill-opacity:1;fill-rule:nonzero;stroke:none"
           id="path6159"
           inkscape:connector-curvature="0" />
        <path
           d="m 104.54527,476.9918 7.9625,0 0,1.70875 -7.9625,0 0,-1.70875 z"
           style="fill:#333333;fill-opacity:1;fill-rule:nonzero;stroke:none"
           id="path6161"
           inkscape:connector-curvature="0" />
        <path
           d="m 104.54527,472.8918 7.9625,0 0,1.71 -7.9625,0 0,-1.71 z"
           style="fill:#333333;fill-opacity:1;fill-rule:nonzero;stroke:none"
           id="path6163"
           inkscape:connector-curvature="0" />
        <g
           style="fill:#333333"
           id="g6173"
           transform="matrix(1.25,0,0,-1.25,103.21865,472.10068)">
          <path
             d="M 0,0 C -0.084,0.084 -0.196,0.131 -0.315,0.131 -0.434,0.131 -0.546,0.084 -0.631,0 l -1.068,-1.068 -0.37,0.371 c -0.174,0.173 -0.457,0.173 -0.631,-0.001 -0.084,-0.084 -0.13,-0.196 -0.13,-0.315 0,-0.119 0.046,-0.231 0.13,-0.316 l 0.686,-0.685 c 0.083,-0.083 0.198,-0.131 0.315,-0.131 0.118,0 0.233,0.048 0.316,0.131 L 0,-0.631 c 0.084,0.084 0.131,0.196 0.131,0.316 C 0.131,-0.196 0.084,-0.084 0,0"
             style="fill:#333333;fill-opacity:1;fill-rule:nonzero;stroke:none"
             id="path6175"
             inkscape:connector-curvature="0" />
        </g>
        <g
           style="fill:#333333"
           id="g6177"
           transform="matrix(1.25,0,0,-1.25,103.21865,476.20755)">
          <path
             d="M 0,0 C -0.084,0.084 -0.196,0.131 -0.315,0.131 -0.434,0.131 -0.546,0.084 -0.631,0 l -1.068,-1.068 -0.37,0.371 c -0.174,0.173 -0.457,0.173 -0.631,0 -0.084,-0.085 -0.13,-0.197 -0.13,-0.316 0,-0.119 0.046,-0.231 0.13,-0.316 l 0.686,-0.685 c 0.083,-0.083 0.198,-0.131 0.315,-0.131 0.118,0 0.233,0.048 0.316,0.131 L 0,-0.631 c 0.084,0.084 0.131,0.196 0.131,0.316 C 0.131,-0.196 0.084,-0.084 0,0"
             style="fill:#333333;fill-opacity:1;fill-rule:nonzero;stroke:none"
             id="path6179"
             inkscape:connector-curvature="0" />
        </g>
        <g
           style="fill:#333333"
           id="g6181"
           transform="matrix(1.25,0,0,-1.25,103.21865,480.31443)">
          <path
             d="M 0,0 C -0.084,0.084 -0.196,0.131 -0.315,0.131 -0.434,0.131 -0.546,0.084 -0.631,0 l -1.068,-1.068 -0.37,0.371 c -0.174,0.173 -0.457,0.173 -0.631,0 -0.084,-0.085 -0.13,-0.197 -0.13,-0.316 0,-0.119 0.046,-0.231 0.13,-0.316 l 0.686,-0.685 c 0.083,-0.083 0.198,-0.131 0.315,-0.131 0.118,0 0.233,0.048 0.316,0.131 L 0,-0.631 c 0.084,0.084 0.131,0.196 0.131,0.316 C 0.131,-0.196 0.084,-0.084 0,0"
             style="fill:#333333;fill-opacity:1;fill-rule:nonzero;stroke:none"
             id="path6183"
             inkscape:connector-curvature="0" />
        </g>
      </g>
      <g
         id="g10322">
        <g
           id="g6185"
           transform="matrix(1.25,0,0,-1.25,305.59852,455.67718)"
           style="fill:#f7f6f5">
          <path
             d="M 0,0 C 16.109,0 29.167,13.059 29.167,29.167 29.167,45.276 16.109,58.334 0,58.334 -16.109,58.334 -29.167,45.276 -29.167,29.167 -29.167,13.059 -16.109,0 0,0"
             style="fill:#f7f6f5;fill-opacity:1;fill-rule:nonzero;stroke:none"
             id="path6187"
             inkscape:connector-curvature="0" />
        </g>
        <g
           id="g10316">
          <text
             y="431.8363"
             x="279.20328"
             id="text6189"
             style="font-variant:normal;font-weight:800;font-stretch:normal;font-size:6.83737516px;font-family:'Montserrat Extra Bold';-inkscape-font-specification:Montserrat-ExtraBold;writing-mode:lr-tb;fill:#333333;fill-opacity:1;fill-rule:nonzero;stroke:none;">
            <tspan
               id="tspan6191"
               sodipodi:role="line"
               y="431.8363"
               x="279.20328 280.93997 284.97403 289.64395 293.80789 295.3053 297.53427 302.17001 304.89813 309.29456 312.33035 319.40021 323.56415 326.59995 330.25793">‘The Informers’</tspan>
          </text>
          <g
             style="fill:#333333"
             transform="matrix(1.25,0,0,-1.25,318.48327,401.36605)"
             id="g6201">
            <path
               inkscape:connector-curvature="0"
               id="path6203"
               style="fill:#333333;fill-opacity:1;fill-rule:nonzero;stroke:none"
               d="M 0,0 C -0.178,0.239 -0.43,0.422 -0.754,0.55 -0.736,0.251 -0.758,0.008 -0.818,-0.179 l -3.832,-12.61 c -0.069,-0.221 -0.218,-0.398 -0.448,-0.529 -0.229,-0.132 -0.467,-0.199 -0.715,-0.199 l -11.792,0 c -1.022,0 -1.634,0.298 -1.839,0.894 -0.085,0.231 -0.081,0.414 0.013,0.55 0.094,0.128 0.255,0.192 0.485,0.192 l 11.102,0 c 0.792,0 1.34,0.147 1.642,0.441 0.303,0.294 0.607,0.948 0.914,1.96 l 3.499,11.576 c 0.188,0.63 0.112,1.183 -0.229,1.66 -0.341,0.477 -0.826,0.716 -1.456,0.716 l -9.723,0 c -0.111,0 -2.027,0 -2.9,-2.16 -0.032,-0.078 -4.713,-13.443 -4.713,-13.478 -0.188,-0.511 -0.18,-1.052 0.025,-1.622 0.238,-0.665 0.662,-1.224 1.271,-1.681 0.609,-0.455 1.241,-0.682 1.897,-0.682 l 11.792,0 c 0.554,0 1.075,0.185 1.565,0.555 0.489,0.371 0.815,0.828 0.977,1.374 L 0.23,-1.648 C 0.417,-1.034 0.341,-0.485 0,0 m -13.592,-0.025 0.267,0.817 c 0.035,0.111 0.105,0.206 0.211,0.288 0.106,0.081 0.215,0.121 0.326,0.121 l 7.768,0 c 0.119,0 0.204,-0.04 0.255,-0.121 0.051,-0.082 0.06,-0.177 0.026,-0.288 l -0.268,-0.817 c -0.035,-0.111 -0.105,-0.207 -0.212,-0.288 -0.106,-0.081 -0.215,-0.121 -0.325,-0.121 l -7.768,0 c -0.119,0 -0.204,0.04 -0.255,0.121 -0.052,0.081 -0.06,0.177 -0.025,0.288 m -1.061,-3.271 0.268,0.818 c 0.034,0.111 0.104,0.206 0.211,0.287 0.107,0.081 0.215,0.122 0.326,0.122 l 7.767,0 c 0.12,0 0.205,-0.041 0.256,-0.122 0.05,-0.081 0.06,-0.176 0.025,-0.287 l -0.269,-0.818 c -0.033,-0.11 -0.104,-0.206 -0.21,-0.287 -0.107,-0.081 -0.215,-0.122 -0.325,-0.122 l -7.768,0 c -0.119,0 -0.204,0.041 -0.256,0.122 -0.05,0.081 -0.059,0.177 -0.025,0.287" />
          </g>
        </g>
      </g>
      <g
         style="fill:#f7f6f5"
         transform="matrix(1.25,0,0,-1.25,226.52352,455.67718)"
         id="g6205">
        <path
           inkscape:connector-curvature="0"
           id="path6207"
           style="fill:#f7f6f5;fill-opacity:1;fill-rule:nonzero;stroke:none"
           d="M 0,0 C 16.109,0 29.167,13.059 29.167,29.167 29.167,45.276 16.109,58.334 0,58.334 -16.109,58.334 -29.167,45.276 -29.167,29.167 -29.167,13.059 -16.109,0 0,0" />
      </g>
      <g
         id="g10304">
        <text
           style="font-variant:normal;font-weight:800;font-stretch:normal;font-size:6.83737516px;font-family:'Montserrat Extra Bold';-inkscape-font-specification:Montserrat-ExtraBold;writing-mode:lr-tb;fill:#333333;fill-opacity:1;fill-rule:nonzero;stroke:none;"
           id="text6209"
           x="206.25102"
           y="431.8363">
          <tspan
             x="206.25102 207.98772 212.02176 216.6917 220.85565 222.35304 227.01613 231.16641 234.20221 238.36617 241.40196 245.05997"
             y="431.8363"
             sodipodi:role="line"
             id="tspan6211">‘The Carers’</tspan>
        </text>
        <g
           id="g6213"
           transform="matrix(1.25,0,0,-1.25,-24.429726,1209.6493)"
           style="fill:#333333">
          <g
             id="g6215"
             clip-path="url(#clipPath6217)"
             style="fill:#333333">
            <g
               id="g6221"
               transform="translate(201.6877,652.6617)"
               style="fill:#333333">
              <path
                 d="m 0,0 c 0,-1.234 -0.968,-2.234 -2.165,-2.234 -1.193,0 -2.163,1 -2.163,2.234 0,1.234 0.97,2.234 2.163,2.234 C -0.968,2.234 0,1.234 0,0"
                 style="fill:#333333;fill-opacity:1;fill-rule:nonzero;stroke:none"
                 id="path6223"
                 inkscape:connector-curvature="0" />
            </g>
            <g
               id="g6225"
               transform="translate(196.3065,642.8426)"
               style="fill:#333333">
              <path
                 d="M 0,0 C 0.038,0.94 0.201,1.956 0.589,2.766 L 0.589,0 5.822,0 C 5.805,1.004 5.788,2.007 5.799,3.011 6.282,2.168 6.474,1.039 6.516,0 L 8.679,0 C 8.561,3.031 7.202,6.285 3.972,6.52 3.433,6.634 2.846,6.627 2.316,6.499 -0.748,6.128 -2.045,2.957 -2.16,0 L 0,0 Z"
                 style="fill:#333333;fill-opacity:1;fill-rule:nonzero;stroke:none"
                 id="path6227"
                 inkscape:connector-curvature="0" />
            </g>
            <g
               id="g6229"
               transform="translate(204.9856,641.8368)"
               style="fill:#333333">
              <path
                 d="m 0,0 c -1.622,-0.081 -3.252,0.018 -4.877,-0.023 -2.23,-0.055 -4.462,-0.117 -6.685,-0.289 -0.526,-0.041 -1.113,-0.434 -1.503,-0.839 -0.415,-0.431 -0.313,-1.068 0.029,-1.581 0.434,-0.654 1.073,-0.832 1.808,-0.783 1.484,0.1 2.971,0.279 4.453,0.249 1.358,-0.027 2.416,-0.841 3.404,-1.757 -1.096,-1.089 -2.419,-1.153 -3.689,-1.354 -3.995,-0.632 -7.388,1.669 -8.202,5.6 -0.19,0.918 -0.513,1.642 -1.466,1.816 -0.379,0.069 -0.696,0.011 -0.969,-0.13 l -0.001,0.002 c 0,0 -1.651,-0.518 -0.533,-3.059 0.387,-1.001 0.761,-2.01 1.295,-2.919 1.531,-2.605 3.884,-4.016 6.791,-4.466 0.154,-0.024 2.857,-0.301 4.768,0.098 3.168,0.662 6.353,1.231 9.541,1.774 1.208,0.205 2.459,0.137 3.69,0.193 l 0,5.468 C 5.327,-0.955 2.823,0.14 0,0"
                 style="fill:#333333;fill-opacity:1;fill-rule:nonzero;stroke:none"
                 id="path6231"
                 inkscape:connector-curvature="0" />
            </g>
          </g>
        </g>
      </g>
    </g>
  </g>
</svg>
