<?xml version="1.0" encoding="UTF-8" standalone="no"?>
<!-- Created with Inkscape (http://www.inkscape.org/) -->

<svg
   xmlns:dc="http://purl.org/dc/elements/1.1/"
   xmlns:cc="http://creativecommons.org/ns#"
   xmlns:rdf="http://www.w3.org/1999/02/22-rdf-syntax-ns#"
   xmlns:svg="http://www.w3.org/2000/svg"
   xmlns="http://www.w3.org/2000/svg"
   xmlns:xlink="http://www.w3.org/1999/xlink"
   xmlns:sodipodi="http://sodipodi.sourceforge.net/DTD/sodipodi-0.dtd"
   xmlns:inkscape="http://www.inkscape.org/namespaces/inkscape"
   id="svg6941"
   version="1.1"
   inkscape:version="0.91 r13725"
   width="1261.0527"
   height="650"
   viewBox="0 0 1261.0528 650.00002"
   sodipodi:docname="a-line-of-smileys-vector-clipart.svg"
   inkscape:export-filename="/home/kathyreid/Dropbox/PHPworkspace/pivotsummit-2016/img/a-line-of-smileys-vector-clipart.svg.png"
   inkscape:export-xdpi="90"
   inkscape:export-ydpi="90">
  <metadata
     id="metadata6947">
    <rdf:RDF>
      <cc:Work
         rdf:about="">
        <dc:format>image/svg+xml</dc:format>
        <dc:type
           rdf:resource="http://purl.org/dc/dcmitype/StillImage" />
        <dc:title></dc:title>
      </cc:Work>
    </rdf:RDF>
  </metadata>
  <defs
     id="defs6945">
    <linearGradient
       id="linearGradient7497-6"
       inkscape:collect="always">
      <stop
         id="stop7507"
         offset="0"
         style="stop-color:#000000;stop-opacity:1" />
      <stop
         id="stop7509"
         offset="1"
         style="stop-color:#ffffff;stop-opacity:1" />
    </linearGradient>
    <linearGradient
       inkscape:collect="always"
       xlink:href="#linearGradient7497-6"
       id="linearGradient7503"
       x1="256.06595"
       y1="13.927081"
       x2="58.096687"
       y2="10.898344"
       gradientUnits="userSpaceOnUse"
       gradientTransform="matrix(3.5036456,0,0,3.5036456,104.91415,383.5937)" />
  </defs>
  <sodipodi:namedview
     pagecolor="#ffffff"
     bordercolor="#666666"
     borderopacity="1"
     objecttolerance="10"
     gridtolerance="10"
     guidetolerance="10"
     inkscape:pageopacity="0"
     inkscape:pageshadow="2"
     inkscape:window-width="1920"
     inkscape:window-height="1056"
     id="namedview6943"
     showgrid="false"
     inkscape:zoom="0.83260066"
     inkscape:cx="451.19614"
     inkscape:cy="356.32935"
     inkscape:window-x="0"
     inkscape:window-y="24"
     inkscape:window-maximized="1"
     inkscape:current-layer="svg6941"
     fit-margin-top="0"
     fit-margin-left="0"
     fit-margin-right="0"
     fit-margin-bottom="0" />
  <path
     style="fill:url(#linearGradient7503);fill-opacity:1"
     d="m 190.75164,522.19925 c -19.33735,-3.30759 -36.44678,-12.21413 -50.23288,-26.14946 -20.34361,-20.56378 -30.90507,-49.917 -28.45069,-79.07226 2.31934,-27.55117 14.76706,-51.90026 35.3,-69.05072 13.37706,-11.17339 29.16792,-17.99716 47.18317,-20.38944 5.14977,-0.68385 20.55838,-0.32339 25.42557,0.59477 11.32953,2.13726 22.8917,6.51806 32.06544,12.14929 20.09978,12.33808 35.74801,33.37568 42.3329,56.91255 10.08693,36.05456 -0.0315,74.64064 -26.23498,100.05384 -13.92678,13.50631 -30.01426,21.71921 -48.77537,24.90059 -7.21103,1.22277 -21.61196,1.24835 -28.61316,0.0508 z m 25.27628,-17.3428 c 20.28948,-3.32889 38.87547,-16.0912 50.37623,-34.59157 13.82041,-22.23186 16.51863,-50.74222 7.16488,-75.70706 -9.36696,-25.00009 -30.10441,-43.45486 -54.61808,-48.60599 -8.0421,-1.68991 -19.50953,-1.75057 -27.43033,-0.14512 -30.87647,6.25838 -54.84859,33.11724 -59.83536,67.04089 -0.90075,6.12742 -0.903,18.33906 -0.004,24.49134 3.96581,27.15539 20.08783,50.13261 43.03426,61.33275 13.08366,6.38609 27.20265,8.49977 41.31285,6.18474 z m -19.28571,-10.37206 c -24.67915,-3.42712 -44.66065,-22.42049 -50.12144,-47.64282 -1.00432,-4.63877 -1.56248,-10.01076 -1.56248,-15.03813 l 0,-4.51655 58.7643,0.11142 58.7643,0.11145 -0.0918,6.15103 c -0.10265,6.89221 -0.56619,10.40289 -2.16945,16.43364 -2.8218,10.61447 -8.49186,20.31992 -16.49685,28.23774 -10.36504,10.25215 -23.58661,15.93275 -38.13904,16.38627 -3.26224,0.1016 -7.28867,-0.004 -8.94764,-0.23405 z m 13.34125,-11.15904 c 15.1711,-2.31493 27.75827,-11.82778 34.9035,-26.37853 2.3946,-4.87647 3.7209,-8.78511 4.62166,-13.62012 0.27013,-1.44989 0.58594,-3.08101 0.70188,-3.62472 l 0.21092,-0.98856 -46.60034,0 -46.60038,0 0.26592,1.6476 c 3.68927,22.84531 19.33967,39.75524 39.73811,42.93623 5.01466,0.78198 7.77823,0.78808 12.75877,0.028 z m -36.27748,-72.62899 c -2.67328,-0.9504 -4.18913,-2.08844 -6.17227,-4.63384 -6.21757,-7.98055 -7.06009,-26.25815 -1.69485,-36.76785 4.47482,-8.76551 13.89819,-10.53942 19.88102,-3.74254 2.22397,2.52654 3.78579,5.71134 5.02496,10.24657 1.3344,4.88365 1.33762,16.36719 0.007,21.23866 -2.95592,10.81357 -9.74515,16.25416 -17.04482,13.659 z m 53.91312,0.27266 c -6.95099,-2.00027 -11.30024,-10.32031 -11.79418,-22.56223 -0.52019,-12.89228 3.36746,-22.80957 10.18625,-25.98488 7.56202,-3.52141 15.18182,1.98306 18.02878,13.02378 1.51855,5.88901 1.52391,15.97029 0.0105,21.74828 -2.6441,10.10202 -9.42961,15.79021 -16.43241,13.77505 z m 179.41697,111.26074 c -20.00915,-3.68955 -37.00898,-12.76045 -50.64423,-27.0232 -18.9399,-19.8115 -28.54696,-45.31422 -27.65343,-73.40847 0.4842,-15.22484 3.56461,-27.73166 10.21204,-41.46201 5.06641,-10.46478 11.14976,-18.87451 19.60157,-27.09759 8.00733,-7.79065 14.6541,-12.48562 24.31929,-17.17804 18.10724,-8.79102 38.65833,-11.23356 58.14844,-6.91107 35.25775,7.81941 63.21845,36.47302 71.42042,73.19035 3.9272,17.58072 3.18642,37.11155 -2.02952,53.5087 -10.78135,33.89287 -37.22866,58.59406 -70.40828,65.75972 -4.79702,1.03599 -6.36497,1.15518 -16.92969,1.28674 -9.86767,0.12298 -12.31297,0.021 -16.03661,-0.66513 z m 21.95017,-16.75254 c 23.2544,-2.66389 42.74707,-15.77411 55.62044,-37.40863 8.40609,-14.12698 12.6613,-33.71963 11.00345,-50.6641 -3.5252,-36.02984 -27.40916,-64.36522 -60.23538,-71.46175 -3.95215,-0.85439 -5.90403,-0.99732 -13.62014,-0.99732 -7.64009,0 -9.68054,0.14663 -13.44619,0.96622 -27.92403,6.07767 -49.95587,27.78583 -57.71399,56.86613 -7.19708,26.97729 -0.99521,55.82397 16.52652,76.86974 15.44313,18.5491 39.12141,28.43516 61.86529,25.82971 z m -16.07921,-10.96718 c -6.67354,-1.05996 -13.89294,-3.51177 -19.61446,-6.66138 -8.73054,-4.80602 -17.56379,-13.52172 -22.64166,-22.3404 l -1.14194,-1.9832 5.27404,-2.36766 c 3.00714,-1.34995 5.42332,-2.19717 5.62138,-1.97101 0.19095,0.21828 1.31496,1.87943 2.49765,3.69179 6.34829,9.72829 17.41285,17.50951 28.52764,20.0623 2.59081,0.59502 5.13197,0.79546 9.66589,0.76246 6.90618,-0.0505 11.9069,-1.08809 17.5307,-3.63805 8.18158,-3.70969 16.61215,-11.32175 21.10267,-19.0538 0.66654,-1.14769 1.40107,-2.20365 1.63232,-2.34657 0.23124,-0.14295 2.77131,0.78044 5.64461,2.05188 l 5.22425,2.31167 -1.14593,2.012 c -2.45413,4.30885 -6.22251,9.19245 -10.02099,12.98651 -7.87655,7.8675 -17.41413,13.14242 -28.32463,15.66543 -4.27077,0.98761 -15.77597,1.46217 -19.83154,0.81803 z m -22.64382,-83.75635 c -4.2445,-1.504 -7.98321,-6.66313 -9.88989,-13.64737 -0.77834,-2.851 -0.93565,-4.64605 -0.93565,-10.67664 0,-6.0306 0.15731,-7.82564 0.93565,-10.67664 3.42908,-12.56072 12.03517,-17.69977 20.21556,-12.07152 7.36708,5.06868 10.52533,22.49684 6.4275,35.46876 -2.98962,9.46379 -9.69157,14.10562 -16.75317,11.60341 z m 52.75488,-0.3051 c -4.29014,-2.05132 -7.43834,-6.57041 -9.23375,-13.2546 -1.1609,-4.32208 -1.18823,-17.12825 -0.0455,-21.30892 1.78581,-6.53298 4.89106,-11.21945 8.80018,-13.28125 2.81448,-1.48447 7.32125,-1.39315 10.03707,0.20338 6.06768,3.56695 9.59953,12.25811 9.59953,23.62251 0,11.39495 -3.86739,20.76721 -9.8232,23.80564 -2.80933,1.4332 -6.60175,1.51984 -9.33438,0.21323 z m 182.92285,111.93116 c -41.65971,-6.27131 -74.19747,-40.82286 -79.60931,-84.53643 -0.78271,-6.32238 -0.88579,-17.89842 -0.21442,-24.08083 3.42233,-31.51454 21.46214,-59.68743 47.9682,-74.91219 41.67243,-23.93615 93.72144,-11.11835 120.94879,29.78534 11.91043,17.89306 17.48943,37.76628 16.77433,59.75286 -0.56208,17.28147 -4.70066,32.25061 -12.97575,46.93281 -13.76333,24.41981 -37.12802,41.39788 -63.9875,46.49677 -6.42705,1.22011 -22.46082,1.53166 -28.90434,0.56167 z m 27.79863,-18.33216 c 48.45531,-11.47804 73.48609,-68.89225 50.70308,-116.29982 -10.30381,-21.44042 -29.26224,-36.97226 -50.92609,-41.72157 -15.44967,-3.38698 -31.30602,-1.40862 -45.47571,5.67388 -22.13554,11.06413 -37.43806,32.32987 -42.23879,58.6988 -1.36054,7.47275 -1.3749,21.85292 -0.028,29.19328 4.01949,21.92552 15.09647,40.20309 31.72547,52.34859 9.9266,7.25016 18.07065,10.57736 32.51254,13.28263 0.60413,0.11317 5.15148,0.14085 10.10525,0.0617 7.74074,-0.12368 9.65587,-0.29781 13.6235,-1.23756 z M 637.1406,464.16878 c -18.24436,-0.67154 -33.94069,-1.23668 -34.88076,-1.25581 l -1.70911,-0.035 0.22038,-7.26169 c 0.12123,-3.99395 0.3388,-7.38022 0.48364,-7.5251 0.26383,-0.26382 70.91729,1.94887 72.57245,2.27271 0.85016,0.16642 0.86982,0.41182 0.60617,7.55127 -0.14996,4.05862 -0.29816,7.42871 -0.3297,7.48911 -0.069,0.13314 3.14918,0.2407 -36.96314,-1.2357 z m -28.70229,-53.33175 c -4.58935,-1.21911 -8.09671,-5.12152 -10.14235,-11.28479 -1.6657,-5.01849 -2.15681,-9.07193 -1.88279,-15.53904 0.4724,-11.14795 4.02579,-18.76329 10.13524,-21.7208 3.00178,-1.45313 7.23457,-1.18084 10.20651,0.65657 4.03469,2.49445 6.87212,7.49991 8.32991,14.69463 1.02808,5.07366 0.69078,15.54675 -0.64859,20.13852 -2.89731,9.9332 -9.00059,14.91368 -15.99793,13.05491 z m 53.82668,0.1654 c -2.3816,-0.46729 -4.38772,-1.6962 -6.39376,-3.91669 -8.30995,-9.19814 -8.23427,-32.80545 0.13454,-41.8843 2.54788,-2.76415 5.50289,-3.95258 9.29524,-3.73829 2.55545,0.14438 3.28558,0.39057 5.30539,1.78872 5.9151,4.09455 9.07918,13.29297 8.57735,24.93524 -0.47685,11.06247 -4.01469,19.0145 -9.64515,21.6795 -2.78988,1.32051 -4.76233,1.62852 -7.27343,1.13582 z m 180.93506,111.39214 c -9.42775,-1.42679 -17.8365,-4.06251 -26.58121,-8.33188 -28.85123,-14.08588 -48.71704,-42.32151 -53.1681,-75.56895 -1.0127,-7.56422 -0.93026,-20.74123 0.17588,-28.11899 2.85974,-19.07436 10.39465,-36.1224 22.17902,-50.18085 27.51543,-32.82521 71.75855,-42.56344 109.45851,-24.09259 28.2891,13.86004 47.66626,41.10396 52.81396,74.25545 1.06794,6.87781 1.05841,22.33541 -0.0175,29.23538 -1.79481,11.50447 -4.51816,20.31523 -9.30246,30.09611 -5.62847,11.50678 -11.07586,18.99757 -20.31589,27.93671 -13.39903,12.96268 -28.74002,20.83173 -47.56595,24.39865 -5.26528,0.99759 -22.04858,1.22256 -27.67568,0.37096 z m 23.28604,-17.56952 c 27.4609,-4.39129 50.42233,-25.15901 59.49509,-53.81109 12.34267,-38.9785 -4.91618,-82.36728 -39.50424,-99.3138 -13.62936,-6.67774 -27.81838,-8.80697 -42.18438,-6.33027 -36.95576,6.37117 -63.84991,41.82584 -62.47386,82.35955 0.76425,22.50987 8.95742,41.74131 24.23994,56.89703 10.93729,10.84644 23.65048,17.47334 38.67916,20.1619 4.80714,0.85997 16.47673,0.87962 21.74829,0.0368 z m 28.03739,-30.19403 c -1.32921,-2.77611 -5.95714,-8.50181 -9.6771,-11.97252 -20.43067,-19.06187 -52.17279,-14.94606 -67.76888,8.78718 -1.42914,2.17482 -2.6559,4.03182 -2.72612,4.12663 -0.17833,0.2407 -10.6919,-4.50614 -10.69288,-4.82778 -4.2e-4,-0.144 1.42227,-2.41765 3.16155,-5.05261 5.4886,-8.31516 13.68524,-15.66613 22.21375,-19.92182 4.95944,-2.47476 7.53381,-3.4338 12.83553,-4.78165 4.27228,-1.08615 5.28087,-1.17326 13.19343,-1.13947 7.73227,0.0329 8.97438,0.14586 12.7414,1.15735 14.11279,3.78951 25.47854,11.46333 33.48802,22.61014 2.68785,3.7407 4.94974,7.54251 4.65988,7.83236 -0.27539,0.27539 -10.08745,4.61014 -10.43557,4.61014 -0.17028,0 -0.61696,-0.64257 -0.99301,-1.42795 z m -68.5751,-63.64273 c -5.48363,-1.26936 -9.35677,-5.95417 -11.58596,-14.014 -1.1528,-4.16787 -1.15389,-16.97336 0,-21.30892 2.45641,-9.2445 7.23829,-14.27917 13.56233,-14.27917 5.83897,0 10.06591,3.71254 12.75597,11.20365 1.68606,4.69524 2.23021,9.0513 1.96025,15.69191 -0.25857,6.35662 -1.03476,10.05771 -2.9754,14.18452 -3.00255,6.38501 -8.41603,9.74869 -13.7153,8.52201 z m 2.19854,-26.85053 c -0.089,-1.27675 -0.16292,-0.34423 -0.16397,2.07223 0,2.41648 0.0718,3.46109 0.16187,2.32136 0.09,-1.13972 0.0911,-3.11684 0,-4.39359 z m 51.11819,26.84112 c -5.22184,-0.97811 -9.30905,-6.02137 -11.5278,-14.22427 -1.35052,-4.99278 -1.35949,-15.99318 -0.0175,-20.95592 3.00129,-11.09573 9.42431,-16.22321 17.38765,-13.88047 2.44074,0.71805 6.32317,4.64743 7.88915,7.98465 4.55853,9.71446 4.16496,25.79472 -0.84045,34.33579 -2.99001,5.10206 -7.90843,7.67361 -12.89149,6.74022 z M 1057.827,522.21767 c -25.1841,-4.47573 -46.8374,-18.81131 -61.57927,-40.76866 -3.42537,-5.1019 -9.21791,-16.76379 -11.07929,-22.3054 -5.38269,-16.02526 -6.96262,-32.57046 -4.63596,-48.54918 5.76501,-39.59246 33.60312,-71.52453 70.43602,-80.79443 41.4982,-10.44403 84.3612,9.9559 104.2162,49.59992 7.3757,14.72693 10.7065,29.12217 10.6742,46.13272 -0.032,16.09181 -3.1722,29.9107 -10.0677,44.28416 -13.5131,28.16763 -39.3336,47.79074 -69.1862,52.58037 -6.0748,0.97468 -22.8732,0.86988 -28.778,-0.17939 z m 27.9658,-17.56458 c 15.3502,-3.07409 30.0296,-11.64275 40.4723,-23.62448 24.8226,-28.48089 27.5149,-71.3853 6.4668,-103.05478 -11.1042,-16.70768 -27.159,-27.7896 -46.4526,-32.06404 -3.6006,-0.7977 -5.7305,-0.95322 -13.2944,-0.97074 -8.5879,-0.02 -10.244,0.13986 -16.2563,1.56823 -17.6657,4.19692 -33.2884,15.44173 -44.1915,31.80785 -9.1294,13.70352 -13.80384,29.49296 -13.80384,46.62638 0,10.79071 1.19025,18.34933 4.40724,27.98761 9.5448,28.59746 33.4593,48.97242 61.693,52.56215 4.7152,0.59951 16.0422,0.14645 20.9593,-0.83818 z m -0.4201,-24.53007 c -0.7787,-10.80496 -2.3943,-17.59734 -5.7028,-23.97639 -1.899,-3.66121 -4.7877,-6.95075 -7.5048,-8.54589 -7.6431,-4.48722 -18.2607,3.3017 -26.2118,19.22868 -2.202,4.41088 -5.3999,12.43671 -6.3473,15.92974 -0.3827,1.41117 -0.7964,2.08243 -1.2777,2.0729 -1.4571,-0.028 -13.4157,-3.82742 -13.5774,-4.31281 -0.3891,-1.16714 4.4833,-14.09415 7.7943,-20.6794 9.5977,-19.08886 23.0625,-29.54136 36.6687,-28.46512 11.3929,0.90117 20.7609,9.13217 26.186,23.00764 3.022,7.72918 4.6172,16.10398 5.1124,26.83904 l 0.2887,6.26088 -7.449,0 -7.4489,0 -0.5304,-7.35927 z m 22.2342,-55.08103 c -6.552,-0.98003 -14.6618,-9.46652 -18.827,-19.70137 -2.1388,-5.25582 -2.7638,-8.20613 -2.7961,-13.19928 -0.024,-3.91765 0.1219,-4.94452 0.9773,-6.81007 2.9897,-6.5216 9.3554,-8.78804 15.9003,-5.66108 5.4645,2.61085 9.9182,7.67636 13.8621,15.76635 2.9959,6.14546 4.1516,10.55609 4.1516,15.84443 0,4.34389 -0.6186,6.76935 -2.4237,9.50427 -2.0398,3.09032 -6.6209,4.88851 -10.8445,4.25675 z m -74.0379,-1.16589 c -9.2566,-3.87657 -9.4,-17.32697 -0.3342,-31.36574 3.0948,-4.79249 8.5028,-9.97468 12.4592,-11.939 5.4206,-2.69123 10.5022,-2.16062 14.1569,1.4782 2.8479,2.83559 3.6455,5.42673 3.3621,10.92227 -0.4364,8.46099 -4.7707,17.252 -12.1744,24.69251 -4.7036,4.72695 -8.34,6.68846 -12.7338,6.86854 -1.9903,0.0816 -3.4588,-0.1221 -4.7356,-0.65678 z"
     id="path7493"
     inkscape:connector-curvature="0" />
  <flowRoot
     xml:space="preserve"
     id="flowRoot7517"
     style="font-style:normal;font-variant:normal;font-weight:normal;font-stretch:normal;font-size:12px;line-height:125%;font-family:Rachana;-inkscape-font-specification:Rachana;letter-spacing:0px;word-spacing:0px;fill:#f7f6f5;fill-opacity:1;stroke:none;stroke-width:1px;stroke-linecap:butt;stroke-linejoin:miter;stroke-opacity:1"
     transform="matrix(3.5036456,0,0,3.5036456,36.113443,725.79441)"><flowRegion
       id="flowRegion7519"><rect
         id="rect7521"
         width="86.456665"
         height="42.12698"
         x="-12.940968"
         y="-49.95174"
         style="fill:#f7f6f5" /></flowRegion><flowPara
       id="flowPara7523"
       style="font-style:normal;font-variant:normal;font-weight:normal;font-stretch:normal;font-family:Poppins;-inkscape-font-specification:Poppins;fill:#f7f6f5"><flowSpan
   style="text-align:center;text-anchor:middle;fill:#f7f6f5"
   id="flowSpan7544">&quot;limitless new </flowSpan>opportunities&quot;</flowPara></flowRoot>  <flowRoot
     xml:space="preserve"
     id="flowRoot7517-7"
     style="font-style:normal;font-variant:normal;font-weight:normal;font-stretch:normal;font-size:12px;line-height:125%;font-family:Rachana;-inkscape-font-specification:Rachana;text-align:center;letter-spacing:0px;word-spacing:0px;text-anchor:middle;fill:#333333;fill-opacity:1;stroke:none;stroke-width:1px;stroke-linecap:butt;stroke-linejoin:miter;stroke-opacity:1"
     transform="matrix(3.5036456,0,0,3.5036456,1035.9874,736.34739)"><flowRegion
       id="flowRegion7519-5"><rect
         id="rect7521-2"
         width="86.456665"
         height="42.12698"
         x="-12.940968"
         y="-49.95174"
         style="text-align:center;text-anchor:middle;fill:#333333" /></flowRegion><flowPara
       id="flowPara7523-4"
       style="font-style:normal;font-variant:normal;font-weight:normal;font-stretch:normal;font-family:Poppins;-inkscape-font-specification:Poppins;text-align:center;text-anchor:middle;fill:#333333">&quot;massive dislocation&quot;</flowPara></flowRoot></svg>
