<?xml version="1.0" encoding="UTF-8" standalone="no"?>
<!-- Created with Inkscape (http://www.inkscape.org/) -->

<svg
   xmlns:dc="http://purl.org/dc/elements/1.1/"
   xmlns:cc="http://creativecommons.org/ns#"
   xmlns:rdf="http://www.w3.org/1999/02/22-rdf-syntax-ns#"
   xmlns:svg="http://www.w3.org/2000/svg"
   xmlns="http://www.w3.org/2000/svg"
   xmlns:sodipodi="http://sodipodi.sourceforge.net/DTD/sodipodi-0.dtd"
   xmlns:inkscape="http://www.inkscape.org/namespaces/inkscape"
   width="197.55556mm"
   height="197.55556mm"
   viewBox="0 0 700.00001 700"
   id="svg7271"
   version="1.1"
   inkscape:version="0.91 r13725"
   sodipodi:docname="artisans.svg"
   inkscape:export-filename="/home/kathyreid/Dropbox/PHPworkspace/pivotsummit-2016/img/artisans.png"
   inkscape:export-xdpi="90"
   inkscape:export-ydpi="90">
  <defs
     id="defs7273" />
  <sodipodi:namedview
     id="base"
     pagecolor="#ffffff"
     bordercolor="#666666"
     borderopacity="1.0"
     inkscape:pageopacity="0.0"
     inkscape:pageshadow="2"
     inkscape:zoom="0.64189453"
     inkscape:cx="141.94406"
     inkscape:cy="378.8595"
     inkscape:document-units="px"
     inkscape:current-layer="layer1"
     showgrid="false"
     fit-margin-top="0"
     fit-margin-left="0"
     fit-margin-right="0"
     fit-margin-bottom="0"
     inkscape:window-width="1920"
     inkscape:window-height="1056"
     inkscape:window-x="0"
     inkscape:window-y="24"
     inkscape:window-maximized="1" />
  <metadata
     id="metadata7276">
    <rdf:RDF>
      <cc:Work
         rdf:about="">
        <dc:format>image/svg+xml</dc:format>
        <dc:type
           rdf:resource="http://purl.org/dc/dcmitype/StillImage" />
        <dc:title></dc:title>
      </cc:Work>
    </rdf:RDF>
  </metadata>
  <g
     inkscape:label="Layer 1"
     inkscape:groupmode="layer"
     id="layer1"
     transform="translate(-83.498656,287.30256)">
    <g
       transform="matrix(9.5998903,0,0,9.5998903,-949.46298,-3961.7535)"
       id="g10291">
      <path
         d="m 144.06015,455.67718 c 20.13625,0 36.45875,-16.32375 36.45875,-36.45875 0,-20.13625 -16.3225,-36.45875 -36.45875,-36.45875 -20.13625,0 -36.45875,16.3225 -36.45875,36.45875 0,20.135 16.3225,36.45875 36.45875,36.45875"
         style="fill:#f7f6f5;fill-opacity:1;fill-rule:nonzero;stroke:none"
         id="path6017"
         inkscape:connector-curvature="0" />
      <g
         id="g10280">
        <text
           style="font-variant:normal;font-weight:800;font-stretch:normal;font-size:6.83737516px;font-family:'Montserrat Extra Bold';-inkscape-font-specification:Montserrat-ExtraBold;writing-mode:lr-tb;fill:#333333;fill-opacity:1;fill-rule:nonzero;stroke:none"
           id="text6019"
           x="120.24252"
           y="431.83643">
          <tspan
             x="120.24252 121.97921 126.01327 130.6832 134.84715 136.34454 141.71872 144.75452 147.82449 150.03979 153.6978 157.84808 162.48383 166.14182"
             y="431.83643"
             sodipodi:role="line"
             id="tspan6021">‘The Artisans’</tspan>
        </text>
        <g
           id="g10238">
          <g
             style="fill:#333333"
             transform="matrix(1.25,0,0,-1.25,137.7424,405.41168)"
             id="g6031">
            <path
               inkscape:connector-curvature="0"
               id="path6033"
               style="fill:#333333;fill-opacity:1;fill-rule:nonzero;stroke:none"
               d="m 0,0 c 0.545,0.073 1.09,-0.114 1.476,-0.5 l 0.976,-0.976 0.923,0.919 -1.334,1.33 c -0.207,0.207 -0.207,0.545 0,0.752 0.208,0.207 0.545,0.207 0.753,0 L 4.127,0.191 5.05,1.11 4.07,2.09 C 3.684,2.476 3.497,3.025 3.57,3.566 3.733,4.802 3.339,6.096 2.391,7.047 1.423,8.015 0.098,8.405 -1.159,8.218 -1.358,8.19 -1.439,7.942 -1.297,7.799 l 1.256,-1.256 c 0.598,-0.598 0.598,-1.566 0,-2.16 L -0.813,3.611 c -0.598,-0.598 -1.566,-0.598 -2.16,0 l -1.26,1.257 C -4.375,5.01 -4.619,4.929 -4.652,4.729 -4.839,3.473 -4.449,2.147 -3.481,1.179 -2.529,0.232 -1.236,-0.163 0,0" />
          </g>
          <g
             style="fill:#333333"
             transform="matrix(1.25,0,0,-1.25,147.51202,407.4803)"
             id="g6035">
            <path
               inkscape:connector-curvature="0"
               id="path6037"
               style="fill:#333333;fill-opacity:1;fill-rule:nonzero;stroke:none"
               d="m 0,0 -0.923,-0.919 5.481,-5.482 c 0.208,-0.207 0.208,-0.544 0,-0.752 -0.207,-0.207 -0.545,-0.207 -0.752,0 L -1.675,-1.671 -2.598,-2.59 3.05,-8.239 c 0.715,-0.715 1.874,-0.711 2.59,0.005 0.716,0.715 0.716,1.874 0.004,2.59 L 0,0 Z" />
          </g>
          <g
             style="fill:#333333"
             transform="matrix(1.25,0,0,-1.25,150.16027,402.90567)"
             id="g6039">
            <path
               inkscape:connector-curvature="0"
               id="path6041"
               style="fill:#333333;fill-opacity:1;fill-rule:nonzero;stroke:none"
               d="m 0,0 2.436,0 2.435,4.867 -1.215,1.216 -4.872,-2.431 0,-2.436 -6.62,-6.6 -1.191,1.187 -4.799,-4.798 c -1,-1 -1,-2.619 0,-3.619 1.001,-1 2.619,-1 3.619,0 L -5.408,-7.816 -6.624,-6.6 0,0 Z" />
          </g>
        </g>
      </g>
    </g>
  </g>
</svg>
