<?xml version="1.0" encoding="UTF-8" standalone="no"?>
<!-- Created with Inkscape (http://www.inkscape.org/) -->

<svg
   xmlns:dc="http://purl.org/dc/elements/1.1/"
   xmlns:cc="http://creativecommons.org/ns#"
   xmlns:rdf="http://www.w3.org/1999/02/22-rdf-syntax-ns#"
   xmlns:svg="http://www.w3.org/2000/svg"
   xmlns="http://www.w3.org/2000/svg"
   xmlns:sodipodi="http://sodipodi.sourceforge.net/DTD/sodipodi-0.dtd"
   xmlns:inkscape="http://www.inkscape.org/namespaces/inkscape"
   width="197.55556mm"
   height="197.55556mm"
   viewBox="0 0 700.00001 700"
   id="svg9851"
   version="1.1"
   inkscape:version="0.91 r13725"
   sodipodi:docname="designers.svg"
   inkscape:export-filename="/home/kathyreid/Dropbox/PHPworkspace/pivotsummit-2016/img/designers.png"
   inkscape:export-xdpi="90"
   inkscape:export-ydpi="90">
  <defs
     id="defs9853">
    <clipPath
       clipPathUnits="userSpaceOnUse"
       id="clipPath6083">
      <path
         d="m 0,0 595.276,0 0,841.89 L 0,841.89 0,0 Z"
         id="path6085"
         inkscape:connector-curvature="0" />
    </clipPath>
  </defs>
  <sodipodi:namedview
     id="base"
     pagecolor="#ffffff"
     bordercolor="#666666"
     borderopacity="1.0"
     inkscape:pageopacity="0.0"
     inkscape:pageshadow="2"
     inkscape:zoom="0.45388798"
     inkscape:cx="-25.167618"
     inkscape:cy="84.976805"
     inkscape:document-units="px"
     inkscape:current-layer="layer1"
     showgrid="false"
     fit-margin-top="0"
     fit-margin-left="0"
     fit-margin-right="0"
     fit-margin-bottom="0"
     inkscape:window-width="1920"
     inkscape:window-height="1056"
     inkscape:window-x="0"
     inkscape:window-y="24"
     inkscape:window-maximized="1" />
  <metadata
     id="metadata9856">
    <rdf:RDF>
      <cc:Work
         rdf:about="">
        <dc:format>image/svg+xml</dc:format>
        <dc:type
           rdf:resource="http://purl.org/dc/dcmitype/StillImage" />
        <dc:title></dc:title>
      </cc:Work>
    </rdf:RDF>
  </metadata>
  <g
     inkscape:label="Layer 1"
     inkscape:groupmode="layer"
     id="layer1"
     transform="translate(-236.73642,82.660991)">
    <g
       transform="matrix(9.5998903,0,0,9.5998903,-1178.3476,-4411.9216)"
       id="g10448">
      <g
         style="fill:#f7f6f5"
         transform="matrix(1.25,0,0,-1.25,183.86502,523.8873)"
         id="g6063">
        <path
           inkscape:connector-curvature="0"
           id="path6065"
           style="fill:#f7f6f5;fill-opacity:1;fill-rule:nonzero;stroke:none"
           d="M 0,0 C 16.109,0 29.167,13.059 29.167,29.167 29.167,45.276 16.109,58.334 0,58.334 -16.109,58.334 -29.167,45.276 -29.167,29.167 -29.167,13.059 -16.109,0 0,0" />
      </g>
      <g
         id="g10430">
        <text
           style="font-variant:normal;font-weight:800;font-stretch:normal;font-size:6.83737516px;font-family:'Montserrat Extra Bold';-inkscape-font-specification:Montserrat-ExtraBold;writing-mode:lr-tb;fill:#333333;fill-opacity:1;fill-rule:nonzero;stroke:none"
           id="text6067"
           x="157.35002"
           y="500.04642">
          <tspan
             x="157.35002 159.08672 163.12076 167.7907 171.95465 173.45204 178.66212 182.82608 186.48407 188.69939 193.15051 197.78625 201.95021 204.98601 208.64401"
             y="500.04642"
             sodipodi:role="line"
             id="tspan6069">‘The Designers’</tspan>
        </text>
        <g
           id="g10388"
           style="fill:#333333">
          <g
             style="fill:#333333"
             id="g10367">
            <g
               style="fill:#333333"
               id="g6071"
               transform="matrix(1.25,0,0,-1.25,172.7179,480.62818)">
              <path
                 d="M 0,0 12.448,12.449 14.909,9.988 2.46,-2.46 0,0 Z"
                 style="fill:#333333;fill-opacity:1;fill-rule:nonzero;stroke:none"
                 id="path6073"
                 inkscape:connector-curvature="0" />
            </g>
            <g
               style="fill:#333333"
               id="g6075"
               transform="matrix(1.25,0,0,-1.25,177.04165,487.42805)">
              <path
                 d="m 0,0 15.497,0 0,15.914 L 0,0 Z m 12.86,2.637 -6.611,0 6.611,6.789 0,-6.789 z"
                 style="fill:#333333;fill-opacity:1;fill-rule:nonzero;stroke:none"
                 id="path6077"
                 inkscape:connector-curvature="0" />
            </g>
            <g
               style="fill:#333333"
               id="g6079"
               transform="matrix(1.25,0,0,-1.25,-24.429726,1209.6493)">
              <g
                 style="fill:#333333"
                 id="g6081"
                 clip-path="url(#clipPath6083)">
                <g
                   style="fill:#333333"
                   id="g6087"
                   transform="translate(157.8517,588.8828)">
                  <path
                     d="m 0,0 c -0.165,0.165 -0.165,0.432 0,0.597 0.165,0.164 0.432,0.164 0.597,0 L 1.348,-0.154 2.382,0.88 1.631,1.631 c -0.165,0.165 -0.165,0.432 0,0.596 0.165,0.165 0.432,0.165 0.596,0 L 2.978,1.476 4.012,2.51 3.261,3.261 c -0.165,0.165 -0.165,0.432 0,0.597 0.165,0.165 0.432,0.165 0.597,0 L 4.609,3.107 5.643,4.141 4.892,4.892 c -0.165,0.165 -0.165,0.432 0,0.597 0.165,0.164 0.432,0.164 0.597,0 L 6.24,4.738 7.274,5.772 6.523,6.523 c -0.165,0.164 -0.165,0.432 0,0.597 0.164,0.164 0.432,0.164 0.596,0 l 0.751,-0.752 1.733,1.733 -10.857,0 0,-10.857 2.005,2.005 L 0,0 Z"
                     style="fill:#333333;fill-opacity:1;fill-rule:nonzero;stroke:none"
                     id="path6089"
                     inkscape:connector-curvature="0" />
                </g>
              </g>
            </g>
            <g
               style="fill:#333333"
               id="g6091"
               transform="matrix(1.25,0,0,-1.25,172.24465,481.64693)">
              <path
                 d="M 0,0 -0.742,-2.766 2.024,-2.024 1.012,-1.012 0,0 Z"
                 style="fill:#333333;fill-opacity:1;fill-rule:nonzero;stroke:none"
                 id="path6093"
                 inkscape:connector-curvature="0" />
            </g>
          </g>
          <g
             transform="matrix(1.25,0,0,-1.25,192.10027,467.39755)"
             id="g6103"
             style="fill:#333333">
            <path
               inkscape:connector-curvature="0"
               id="path6105"
               style="fill:#333333;fill-opacity:1;fill-rule:nonzero;stroke:none"
               d="m 0,0 0.92,0.92 c 0.141,0.141 0.218,0.327 0.218,0.526 0,0.198 -0.077,0.384 -0.218,0.525 l -1.41,1.41 c -0.14,0.14 -0.327,0.218 -0.525,0.218 -0.199,0 -0.385,-0.078 -0.526,-0.218 L -2.461,2.461 -1.23,1.23 0,0 Z" />
          </g>
        </g>
      </g>
    </g>
  </g>
</svg>
