<?xml version="1.0" encoding="UTF-8" standalone="no"?>
<!-- Created with Inkscape (http://www.inkscape.org/) -->

<svg
   xmlns:dc="http://purl.org/dc/elements/1.1/"
   xmlns:cc="http://creativecommons.org/ns#"
   xmlns:rdf="http://www.w3.org/1999/02/22-rdf-syntax-ns#"
   xmlns:svg="http://www.w3.org/2000/svg"
   xmlns="http://www.w3.org/2000/svg"
   xmlns:sodipodi="http://sodipodi.sourceforge.net/DTD/sodipodi-0.dtd"
   xmlns:inkscape="http://www.inkscape.org/namespaces/inkscape"
   id="svg6941"
   version="1.1"
   inkscape:version="0.91 r13725"
   width="946.84454"
   height="500"
   viewBox="0 0 946.84464 500.00003"
   sodipodi:docname="fourth-industrial-revolution.svg"
   inkscape:export-filename="/home/kathyreid/Dropbox/PHPworkspace/pivotsummit-2016/img/fourth-industrial-revolution.png"
   inkscape:export-xdpi="90"
   inkscape:export-ydpi="90">
  <metadata
     id="metadata6947">
    <rdf:RDF>
      <cc:Work
         rdf:about="">
        <dc:format>image/svg+xml</dc:format>
        <dc:type
           rdf:resource="http://purl.org/dc/dcmitype/StillImage" />
        <dc:title />
      </cc:Work>
    </rdf:RDF>
  </metadata>
  <defs
     id="defs6945" />
  <sodipodi:namedview
     pagecolor="#ffffff"
     bordercolor="#666666"
     borderopacity="1"
     objecttolerance="10"
     gridtolerance="10"
     guidetolerance="10"
     inkscape:pageopacity="0"
     inkscape:pageshadow="2"
     inkscape:window-width="1920"
     inkscape:window-height="1056"
     id="namedview6943"
     showgrid="false"
     inkscape:zoom="1.1332507"
     inkscape:cx="502.78373"
     inkscape:cy="147.54781"
     inkscape:window-x="0"
     inkscape:window-y="24"
     inkscape:window-maximized="1"
     inkscape:current-layer="svg6941"
     fit-margin-top="0"
     fit-margin-left="0"
     fit-margin-right="0"
     fit-margin-bottom="0" />
  <flowRoot
     xml:space="preserve"
     id="flowRoot8344"
     style="font-style:normal;font-variant:normal;font-weight:normal;font-stretch:normal;font-size:180px;line-height:125%;font-family:Rachana;-inkscape-font-specification:Rachana;letter-spacing:0px;word-spacing:0px;fill:#aea79f;fill-opacity:1;stroke:none;stroke-width:1px;stroke-linecap:butt;stroke-linejoin:miter;stroke-opacity:1"
     transform="translate(-31.227897,285.73574)"><flowRegion
       id="flowRegion8346"><rect
         id="rect8348"
         width="341.09988"
         height="196.97318"
         x="104.49187"
         y="137.2811"
         style="fill:#aea79f" /></flowRegion><flowPara
       id="flowPara8350" /></flowRoot>  <flowRoot
     xml:space="preserve"
     id="flowRoot4171"
     style="font-style:normal;font-variant:normal;font-weight:normal;font-stretch:normal;font-size:180px;line-height:125%;font-family:FontAwesome;-inkscape-font-specification:FontAwesome;letter-spacing:0px;word-spacing:0px;fill:#aea79f;fill-opacity:1;stroke:none;stroke-width:1px;stroke-linecap:butt;stroke-linejoin:miter;stroke-opacity:1"
     transform="translate(-31.227897,285.73572)"><flowRegion
       id="flowRegion4173"><rect
         id="rect4175"
         width="730.242"
         height="205.38057"
         x="48.04224"
         y="155.29694"
         style="font-style:normal;font-variant:normal;font-weight:normal;font-stretch:normal;font-family:FontAwesome;-inkscape-font-specification:FontAwesome;fill:#aea79f" /></flowRegion><flowPara
       id="flowPara4177" /></flowRoot>  <g
     id="g6191"
     style="fill:#f7f6f5">
    <flowRoot
       transform="translate(-126.11133,80.14389)"
       style="font-style:normal;font-variant:normal;font-weight:normal;font-stretch:normal;font-size:180px;line-height:125%;font-family:Rachana;-inkscape-font-specification:Rachana;letter-spacing:0px;word-spacing:0px;fill:#f7f6f5;fill-opacity:1;stroke:none;stroke-width:1px;stroke-linecap:butt;stroke-linejoin:miter;stroke-opacity:1"
       id="flowRoot4179"
       xml:space="preserve"><flowRegion
         id="flowRegion4181"><rect
           y="128.8737"
           x="126.11088"
           height="534.46997"
           width="1053.3263"
           id="rect4183"
           style="fill:#f7f6f5" /></flowRegion><flowPara
         style="font-style:normal;font-variant:normal;font-weight:normal;font-stretch:normal;font-family:FontAwesome;-inkscape-font-specification:FontAwesome;fill:#f7f6f5"
         id="flowPara4185"></flowPara></flowRoot>    <text
       sodipodi:linespacing="125%"
       id="text4292"
       y="214.76338"
       x="35.510353"
       style="font-style:normal;font-variant:normal;font-weight:normal;font-stretch:normal;font-size:180px;line-height:125%;font-family:Rachana;-inkscape-font-specification:Rachana;letter-spacing:0px;word-spacing:0px;fill:#f7f6f5;fill-opacity:1;stroke:none;stroke-width:1px;stroke-linecap:butt;stroke-linejoin:miter;stroke-opacity:1"
       xml:space="preserve"><tspan
         style="font-style:normal;font-variant:normal;font-weight:300;font-stretch:normal;font-size:70.00000763px;font-family:Poppins;-inkscape-font-specification:'Poppins Light';fill:#f7f6f5"
         y="214.76338"
         x="35.510353"
         id="tspan4294"
         sodipodi:role="line">1st</tspan></text>
    <text
       sodipodi:linespacing="125%"
       id="text4404"
       y="499.30005"
       x="6.4627695"
       style="font-style:normal;font-variant:normal;font-weight:normal;font-stretch:normal;font-size:180px;line-height:125%;font-family:Rachana;-inkscape-font-specification:Rachana;letter-spacing:0px;word-spacing:0px;fill:#f7f6f5;fill-opacity:1;stroke:none;stroke-width:1px;stroke-linecap:butt;stroke-linejoin:miter;stroke-opacity:1"
       xml:space="preserve"><tspan
         style="font-style:normal;font-variant:normal;font-weight:bold;font-stretch:normal;font-size:50.00000763px;font-family:Poppins;-inkscape-font-specification:'Poppins Bold';fill:#f7f6f5"
         y="499.30005"
         x="6.4627695"
         id="tspan4406"
         sodipodi:role="line">1780s</tspan></text>
  </g>
  <g
     id="g6208"
     transform="translate(15.765649,0)"
     style="fill:#f7f6f5">
    <flowRoot
       transform="translate(354.63889,86.572462)"
       style="font-style:normal;font-variant:normal;font-weight:normal;font-stretch:normal;font-size:180px;line-height:125%;font-family:Rachana;-inkscape-font-specification:Rachana;letter-spacing:0px;word-spacing:0px;fill:#f7f6f5;fill-opacity:1;stroke:none;stroke-width:1px;stroke-linecap:butt;stroke-linejoin:miter;stroke-opacity:1"
       id="flowRoot4179-0"
       xml:space="preserve"><flowRegion
         id="flowRegion4181-4"><rect
           y="128.8737"
           x="126.11088"
           height="534.46997"
           width="1053.3263"
           id="rect4183-8"
           style="fill:#f7f6f5" /></flowRegion><flowPara
         style="font-style:normal;font-variant:normal;font-weight:normal;font-stretch:normal;font-family:FontAwesome;-inkscape-font-specification:FontAwesome;fill:#f7f6f5"
         id="flowPara4185-0"></flowPara></flowRoot>    <text
       sodipodi:linespacing="125%"
       id="text4292-3-4"
       y="214.76338"
       x="502.61218"
       style="font-style:normal;font-variant:normal;font-weight:normal;font-stretch:normal;font-size:180px;line-height:125%;font-family:Rachana;-inkscape-font-specification:Rachana;letter-spacing:0px;word-spacing:0px;fill:#f7f6f5;fill-opacity:1;stroke:none;stroke-width:1px;stroke-linecap:butt;stroke-linejoin:miter;stroke-opacity:1"
       xml:space="preserve"><tspan
         style="font-style:normal;font-variant:normal;font-weight:300;font-stretch:normal;font-size:70.00000763px;font-family:Poppins;-inkscape-font-specification:'Poppins Light';fill:#f7f6f5"
         y="214.76338"
         x="502.61218"
         id="tspan4294-4-3"
         sodipodi:role="line">3rd</tspan></text>
    <text
       sodipodi:linespacing="125%"
       id="text4404-2-8"
       y="499.25003"
       x="487.50595"
       style="font-style:normal;font-variant:normal;font-weight:normal;font-stretch:normal;font-size:180px;line-height:125%;font-family:Rachana;-inkscape-font-specification:Rachana;letter-spacing:0px;word-spacing:0px;fill:#f7f6f5;fill-opacity:1;stroke:none;stroke-width:1px;stroke-linecap:butt;stroke-linejoin:miter;stroke-opacity:1"
       xml:space="preserve"><tspan
         style="font-style:normal;font-variant:normal;font-weight:bold;font-stretch:normal;font-size:50.00000763px;font-family:Poppins;-inkscape-font-specification:'Poppins Bold';fill:#f7f6f5"
         y="499.25003"
         x="487.50595"
         id="tspan4406-5-9"
         sodipodi:role="line">1970s</tspan></text>
  </g>
  <g
     id="g6201"
     transform="translate(20.225579,0)"
     style="fill:#f7f6f5">
    <text
       sodipodi:linespacing="125%"
       id="text4292-3"
       y="214.76338"
       x="240.86435"
       style="font-style:normal;font-variant:normal;font-weight:normal;font-stretch:normal;font-size:180px;line-height:125%;font-family:Rachana;-inkscape-font-specification:Rachana;letter-spacing:0px;word-spacing:0px;fill:#f7f6f5;fill-opacity:1;stroke:none;stroke-width:1px;stroke-linecap:butt;stroke-linejoin:miter;stroke-opacity:1"
       xml:space="preserve"><tspan
         style="font-style:normal;font-variant:normal;font-weight:300;font-stretch:normal;font-size:70.00000763px;font-family:Poppins;-inkscape-font-specification:'Poppins Light';fill:#f7f6f5"
         y="214.76338"
         x="240.86435"
         id="tspan4294-4"
         sodipodi:role="line">2nd</tspan></text>
    <text
       sodipodi:linespacing="125%"
       id="text4404-2"
       y="499.30005"
       x="234.49512"
       style="font-style:normal;font-variant:normal;font-weight:normal;font-stretch:normal;font-size:180px;line-height:125%;font-family:Rachana;-inkscape-font-specification:Rachana;letter-spacing:0px;word-spacing:0px;fill:#f7f6f5;fill-opacity:1;stroke:none;stroke-width:1px;stroke-linecap:butt;stroke-linejoin:miter;stroke-opacity:1"
       xml:space="preserve"><tspan
         style="font-style:normal;font-variant:normal;font-weight:bold;font-stretch:normal;font-size:50.00000763px;font-family:Poppins;-inkscape-font-specification:'Poppins Bold';fill:#f7f6f5"
         y="499.30005"
         x="234.49512"
         id="tspan4406-5"
         sodipodi:role="line">1870s</tspan></text>
    <path
       inkscape:connector-curvature="0"
       id="path4987"
       d="m 223.99455,420.12871 0,-1.04498 16.87504,0 16.87504,0 -0.75225,-0.45296 c -2.28918,-1.37848 -3.92046,-3.25359 -4.92064,-5.65614 -1.24153,-2.98227 -1.19119,-6.67066 0.13125,-9.61811 0.84443,-1.8821 2.45033,-3.77833 4.17376,-4.92839 0.54527,-0.36385 1.02078,-0.69067 1.0567,-0.72626 0.0359,-0.0356 -5.63628,-0.046 -12.6049,-0.0229 l -12.67021,0.0417 -0.0228,-2.02123 -0.0228,-2.02125 -2.81822,-0.0352 -2.81822,-0.0352 0,2.10722 0,2.10723 -0.93009,-0.0526 c -0.82096,-0.0464 -0.96657,-0.095 -1.2409,-0.41388 l -0.3108,-0.36132 0,-5.08078 c 0,-3.44542 0.0467,-5.18323 0.14503,-5.3991 0.19858,-0.43586 0.64064,-0.60834 1.55918,-0.60834 l 0.77758,0 0,1.86136 -1e-5,1.86135 2.81008,-0.0275 2.81008,-0.0275 0.0309,-14.14494 0.031,-14.14493 3.88596,-0.0346 3.88596,-0.0346 0,-12.14904 0,-12.14904 0.47158,-0.94376 c 2.04283,-4.08819 5.22024,-7.42645 8.87202,-9.32115 l 1.2247,-0.63541 0.0837,-0.71841 c 0.59768,-5.12615 3.57901,-9.50965 8.02671,-11.80183 0.75434,-0.38875 1.66541,-0.80223 2.02462,-0.91884 0.5776,-0.18749 0.74254,-0.33334 1.42663,-1.26142 1.01701,-1.37976 3.15295,-3.42413 4.52733,-4.33323 2.24484,-1.4849 4.47415,-2.41037 7.13323,-2.96127 1.44517,-0.29941 2.05472,-0.33257 2.82541,-0.1537 0.38567,0.0895 0.48487,0.0782 0.43576,-0.0499 -0.23114,-0.60232 -0.74898,-3.10455 -0.88,-4.25217 -0.20585,-1.803 -0.08,-4.76317 0.27479,-6.46572 0.74882,-3.59298 2.51298,-7.29988 4.60537,-9.67696 l 0.52591,-0.59748 -0.21739,-1.13258 c -0.58493,-3.04732 -0.61564,-6.38556 -0.0837,-9.10043 1.15242,-5.88185 4.41643,-11.14875 9.02821,-14.56818 3.03169,-2.24787 5.74002,-3.35969 9.38875,-3.85426 4.95526,-0.67169 10.46688,0.68556 14.7232,3.62561 3.80163,2.62597 6.73406,6.52646 8.15001,10.84054 l 0.41636,1.26853 0.86215,0.27781 c 2.23292,0.7195 4.59377,2.35154 6.09163,4.21109 1.00245,1.24454 2.13995,3.45859 2.54367,4.9511 1.08662,4.01717 0.11886,8.5522 -2.90744,13.62458 -1.26666,2.12306 -2.31577,3.45892 -4.21203,5.36329 -2.6215,2.63271 -4.61515,3.88805 -7.33186,4.61664 -0.53509,0.14351 -0.54204,0.15334 -0.95723,1.35211 -2.58389,7.46047 -10.69542,11.8901 -18.22749,9.9539 -0.71842,-0.18468 -1.4242,-0.36604 -1.56839,-0.40302 -0.21455,-0.0551 -0.3297,0.0709 -0.6337,0.69299 -3.20783,6.56439 -10.99621,10.09114 -18.22154,8.25109 l -1.09177,-0.27803 -0.61333,0.63876 c -2.6552,2.76528 -5.81516,4.50816 -9.58749,5.288 -1.90695,0.39422 -4.85473,0.3869 -6.75157,-0.0168 -1.93413,-0.41159 -1.8276,-0.42926 -2.0943,0.34743 -0.87476,2.54746 -2.73702,5.02593 -4.94995,6.58783 l -1.18486,0.83627 0,12.50939 0,12.50939 10.44966,0 10.44966,0 0,-6.20448 0,-6.20447 1.92665,-2.6e-4 1.92666,-2.6e-4 0.39186,-0.75015 c 0.49387,-0.94543 1.85937,-2.40801 2.84732,-3.04973 2.50539,-1.62741 5.91424,-1.87895 8.66568,-0.63944 1.60157,0.72151 3.16041,2.1654 3.9625,3.67028 l 0.41023,0.76964 1.95166,0 1.95164,0 0,6.20451 0,6.20447 9.99248,0 9.99248,0 0,-3.97749 c 0,-2.39917 0.0573,-4.2522 0.14435,-4.66971 0.6515,-3.12415 3.67541,-5.14618 7.02649,-4.69855 2.52587,0.33743 4.30887,1.7576 5.12076,4.07872 0.28119,0.80394 0.29493,1.03239 0.3039,5.05413 l 0.009,4.21213 8.98017,0 8.98017,0 0,-13.12739 0,-13.12738 9.21116,0 9.21118,0 -0.035,3.03694 -0.035,3.03691 -6.10652,0.034 -6.10652,0.034 0,10.05648 0,10.05651 3.00428,0 3.00428,0 0,1.11028 0,1.11026 -0.84904,0 -0.84903,0 0,11.23339 0,11.23339 8.03316,0 8.03318,0 0,-10.31903 0,-10.31907 -2.02462,0 -2.02462,0 0,-2.0246 0,-2.02462 6.13917,0 6.13918,0 0,2.02462 0,2.0246 -2.09062,0 -2.09059,0 0.0334,12.15332 0.0334,12.15328 2.80834,0 2.80834,0 0.0363,-1.83437 0.0363,-1.83439 0.774,0 c 0.91508,0 1.3572,0.17288 1.5556,0.60834 0.0983,0.21584 0.14503,1.95369 0.14503,5.39907 l 0,5.08075 -0.30056,0.3494 c -0.25984,0.30213 -0.42747,0.35853 -1.23748,0.41646 l -0.93695,0.0671 -0.0361,-2.07459 -0.0361,-2.07458 -2.80834,0 -2.80834,0 -0.036,2.05727 -0.036,2.05728 -13.02609,0.003 -13.0261,0.003 0.57724,0.32994 c 3.99908,2.28596 6.34921,7.38789 5.56765,12.08694 -0.55945,3.36363 -2.38914,6.21645 -5.18743,8.08821 l -1.1705,0.78294 17.25049,0 17.25049,0 0,1.04495 0,1.04497 -81.18077,0 -81.18075,0 0,-1.04497 z m 60.82003,-1.36733 c -3.4309,-2.06599 -5.52213,-5.4573 -5.88792,-9.54835 -0.16435,-1.83807 0.36609,-4.4623 1.26554,-6.26093 0.87214,-1.74407 2.49979,-3.5608 4.13987,-4.62083 l 0.83347,-0.53871 -8.12968,0 -8.12968,0 0.9676,0.64718 c 1.21563,0.81306 2.73125,2.38975 3.522,3.66391 3.54506,5.71225 1.72614,13.08692 -4.09947,16.62088 l -0.80746,0.48985 8.53899,0 8.539,0 -0.75226,-0.453 z m 27.7408,0.0416 c -2.70777,-1.54152 -4.72005,-4.15745 -5.61853,-7.30398 -0.42076,-1.47346 -0.49068,-3.88141 -0.15909,-5.47859 0.64549,-3.10921 2.46981,-5.82604 5.08802,-7.57719 l 0.97274,-0.65061 -8.13496,0 -8.13496,0 1.0758,0.73601 c 2.80141,1.91658 4.71505,5.12534 5.1157,8.57792 0.245,2.11144 -0.12389,4.3585 -1.03456,6.30181 -1.1158,2.38107 -2.54753,3.98767 -4.73764,5.31623 l -0.80745,0.48984 8.54666,0 8.54669,0 -0.71842,-0.409 z m 27.49566,-0.1332 c -1.22096,-0.72533 -3.25515,-2.76688 -3.97567,-3.98998 -1.1908,-2.02146 -1.70633,-3.91147 -1.70633,-6.25563 0,-2.45035 0.55371,-4.43516 1.79987,-6.45169 0.74479,-1.20521 2.42268,-2.90802 3.5459,-3.59852 l 0.83936,-0.51603 -3.99749,-0.0345 c -2.19863,-0.0189 -5.82733,-0.0189 -8.06383,0 l -4.06632,0.0345 0.88936,0.58406 c 2.24829,1.47654 3.98429,3.85826 4.83009,6.62664 0.31586,1.03385 0.35199,1.35853 0.3604,3.23897 0.007,1.65719 -0.0414,2.27695 -0.23557,2.99322 -0.82813,3.05447 -2.62504,5.54438 -5.22712,7.24302 l -1.0272,0.67058 8.47444,0 8.47445,0 -0.91434,-0.54323 z"
       style="fill:#f7f6f5;fill-opacity:1" />
  </g>
  <g
     id="g6218"
     transform="translate(4.8322408e-5,0)"
     style="fill:#f7f6f5">
    <text
       sodipodi:linespacing="125%"
       id="text4292-3-4-9"
       y="215.46338"
       x="767.02167"
       style="font-style:normal;font-variant:normal;font-weight:normal;font-stretch:normal;font-size:180px;line-height:125%;font-family:Rachana;-inkscape-font-specification:Rachana;letter-spacing:0px;word-spacing:0px;fill:#f7f6f5;fill-opacity:1;stroke:none;stroke-width:1px;stroke-linecap:butt;stroke-linejoin:miter;stroke-opacity:1"
       xml:space="preserve"><tspan
         style="font-style:normal;font-variant:normal;font-weight:300;font-stretch:normal;font-size:70.00000763px;font-family:Poppins;-inkscape-font-specification:'Poppins Light';fill:#f7f6f5"
         y="215.46338"
         x="767.02167"
         id="tspan4294-4-3-7"
         sodipodi:role="line">4th</tspan></text>
    <text
       sodipodi:linespacing="125%"
       id="text4404-2-8-5"
       y="499.42505"
       x="755.85791"
       style="font-style:normal;font-variant:normal;font-weight:normal;font-stretch:normal;font-size:180px;line-height:125%;font-family:Rachana;-inkscape-font-specification:Rachana;letter-spacing:0px;word-spacing:0px;fill:#f7f6f5;fill-opacity:1;stroke:none;stroke-width:1px;stroke-linecap:butt;stroke-linejoin:miter;stroke-opacity:1"
       xml:space="preserve"><tspan
         style="font-style:normal;font-variant:normal;font-weight:bold;font-stretch:normal;font-size:50.00000763px;font-family:Poppins;-inkscape-font-specification:'Poppins Bold';fill:#f7f6f5"
         y="499.42505"
         x="755.85791"
         id="tspan4406-5-9-0"
         sodipodi:role="line">now!</tspan></text>
    <g
       style="fill:#f7f6f5"
       id="g5967"
       transform="matrix(0.08386809,0,0,0.08386809,979.51381,223.97089)">
      <path
         style="fill:#f7f6f5;fill-opacity:1;stroke:none;stroke-width:10;stroke-miterlimit:4;stroke-dasharray:none;stroke-opacity:1"
         d="m -1599.2113,2616.1353 c -43.7992,-17.0825 -219.4544,-84.8022 -438.5,-169.0533 -135.575,-52.146 -279.35,-107.4958 -319.5,-122.9996 -40.15,-15.5039 -88.7454,-34.2607 -107.9898,-41.6818 -19.2444,-7.4211 -35.7819,-13.9169 -36.75,-14.435 -1.5818,-0.8465 -1.7602,-2.7962 -1.7602,-19.2331 0,-47.2021 7.6715,-81.0085 36.6104,-161.3332 21.3596,-59.287 28.7715,-82.7353 34.2351,-108.3053 5.0435,-23.6039 7.2413,-53.0656 5.2219,-70 -0.623,-5.225 -1.5412,-20.1481 -2.0403,-33.1624 -2.2219,-57.9372 -10.6622,-100.6505 -30.1859,-152.7587 -12.7189,-33.9465 -35.379,-78.0237 -55.8204,-108.5789 -2.5756,-3.85 -7.3045,-11.725 -10.5086,-17.5 -12.576,-22.667 -32.4775,-50.9404 -53.8479,-76.5 -11.1506,-13.3364 -17.2355,-20.1963 -45.6816,-51.5 -39.1621,-43.0961 -52.8839,-58.9588 -69.6358,-80.5 -26.6852,-34.3146 -45.7549,-67.4726 -62.4,-108.5 -20.6227,-50.8317 -24.2598,-60.1254 -30.8034,-78.709 -31.6682,-89.938 -50.765,-184.5421 -57.286,-283.79107 -1.6122,-24.5366 -1.6171,-93.7033 -0.01,-117.5 8.3969,-124.2079 36.5372,-232.7933 86.6871,-334.5 10.6471,-21.593 15.6225,-29.3119 33.8403,-52.5 113.3655,-144.2952 277.7759,-247.11596 473.1235,-295.88718 142.3805,-35.547201 297.4571,-39.424901 440,-11.0023 58.2146,11.6078 135.08,30.6776 183.2016,45.451 139.8153,42.92368 243.7966,95.08088 325.7984,163.42108 12.2337,10.1955 39.6646,35.2616 43.4177,39.6746 1.3297,1.5636 6.4466,7.0792 11.3707,12.257 34.8484,36.6431 72.5986,91.8254 99.2532,145.0858 40.8395,81.6041 65.593,173.2683 80.4736,298 4.2537,35.6549 8.395,82.7934 12.9584,147.5 5.4747,77.62757 7.8289,109.02557 9.6351,128.49997 1.4617,15.7593 1.7576,17.0836 6.5916,29.5 15.4241,39.6176 41.7136,85.3694 73.8376,128.5001 24.86,33.3778 45.8417,58.3048 87.80787,104.3183 13.9938,15.3433 15.7728,17.7226 20.1915,27.0038 6.2798,13.1904 8.908,22.8173 9.6034,35.1779 0.7128,12.6687 -1.1551,21.9447 -6.631,32.9297 -10.5216,21.1069 -25.7431,33.2975 -76.49577,61.2639 -24.3091,13.3951 -33.7663,19.5406 -41.747,27.128 -15.8615,15.0798 -17.4314,27.8196 -6.1717,50.0837 2.947,5.8271 7.9805,14.139 11.1856,18.4709 l 5.8275,7.8762 -0.8298,7.1238 c -2.0603,17.6875 -10.2407,32.3941 -24.0127,43.17 -3.7636,2.9448 -13.1256,8.542 -20.8044,12.4383 -9.1832,4.6597 -13.9614,7.632 -13.9614,8.6848 0,0.8804 6.3386,7.8803 14.0857,15.5553 l 14.0858,13.9547 -1.7106,7.1604 c -2.7106,11.3467 -7.9524,24.5653 -18.7013,47.1603 -18.0349,37.9109 -22.3,49.1336 -25.3781,66.7764 -3.6465,20.9013 1.4165,40.8282 14.8712,58.529 5.6859,7.4802 8.0546,13.9296 11.8566,32.2825 1.9818,9.5667 2.3611,14.3228 2.3455,29.4121 -0.027,26.3435 -3.2498,40.3918 -14.451,63 -16.6702,33.6462 -47.5821,60.4519 -86.449,74.9653 -22.3023,8.3279 -45.226,12.5333 -68.3392,12.5368 -24.2767,0 -87.2129,3.9446 -120.7156,7.5589 -105.0366,11.3317 -176.5404,39.2197 -230.1324,89.7567 -7.6701,7.2329 -8.4459,8.3654 -13.6494,19.9255 -8.4062,18.6755 -10.2314,25.3767 -10.1478,37.2568 0.062,8.8051 0.5614,11.5654 4.1789,23.1006 2.2597,7.2054 4.6747,15.9804 5.3667,19.5 1.8287,9.3014 1.5483,31.4935 -0.5467,43.2762 -1.5416,8.6697 -2.3133,10.6863 -6.3142,16.5 -14.1993,20.633 -19.8304,47.4705 -17.4096,82.974 0.6312,9.2575 2.7023,29.3907 4.6023,44.7405 7.3564,59.428 7.0217,79.7716 -1.7336,105.3431 -3.4913,10.1973 -15.0641,31.1183 -17.1543,31.0114 -0.5829,-0.03 -7.8099,-2.6869 -16.0599,-5.9045 z"
         id="path5690-1"
         inkscape:connector-curvature="0" />
      <flowRoot
         xml:space="preserve"
         id="flowRoot4179-1"
         style="font-style:normal;font-variant:normal;font-weight:normal;font-stretch:normal;font-size:180px;line-height:125%;font-family:Rachana;-inkscape-font-specification:Rachana;letter-spacing:0px;word-spacing:0px;fill:#f7f6f5;fill-opacity:1;stroke:#000000;stroke-width:1px;stroke-linecap:butt;stroke-linejoin:miter;stroke-opacity:1"
         transform="matrix(6.3005506,0,0,6.3005506,-3430.5002,-997.96723)"><flowRegion
           id="flowRegion4181-2"><rect
             style="fill:#f7f6f5;stroke:#000000;stroke-opacity:1"
             id="rect4183-9"
             width="1053.3263"
             height="534.46997"
             x="126.11088"
             y="128.8737" /></flowRegion><flowPara
           id="flowPara4185-3"
           style="font-style:normal;font-variant:normal;font-weight:normal;font-stretch:normal;font-family:FontAwesome;-inkscape-font-specification:FontAwesome;fill:#f7f6f5;stroke:#000000;stroke-opacity:1"></flowPara></flowRoot>      <flowRoot
         xml:space="preserve"
         id="flowRoot4179-3-8-0"
         style="font-style:normal;font-variant:normal;font-weight:normal;font-stretch:normal;font-size:497.61508179px;line-height:125%;font-family:Rachana;-inkscape-font-specification:Rachana;letter-spacing:0px;word-spacing:0px;fill:#f7f6f5;fill-opacity:1;stroke:#000000;stroke-width:2.76452804px;stroke-linecap:butt;stroke-linejoin:miter;stroke-opacity:1"
         transform="translate(-2816.8677,535.97333)"><flowRegion
           style="stroke-width:2.76452804px"
           id="flowRegion4181-5-7-2"><rect
             style="fill:#f7f6f5;stroke:#000000;stroke-width:7.6426158px;stroke-opacity:1"
             id="rect4183-6-9-3"
             width="2911.9502"
             height="1477.5573"
             x="1.382683"
             y="-140.79385" /></flowRegion><flowPara
           id="flowPara4185-2-2-7"
           style="font-style:normal;font-variant:normal;font-weight:normal;font-stretch:normal;font-family:FontAwesome;-inkscape-font-specification:FontAwesome;fill:#f7f6f5;stroke:#000000;stroke-width:2.76452804px;stroke-opacity:1"></flowPara></flowRoot>      <flowRoot
         xml:space="preserve"
         id="flowRoot4179-5"
         style="font-style:normal;font-variant:normal;font-weight:normal;font-stretch:normal;font-size:1134.09912109px;line-height:125%;font-family:Rachana;-inkscape-font-specification:Rachana;letter-spacing:0px;word-spacing:0px;fill:#f7f6f5;fill-opacity:1;stroke:#000000;stroke-width:6.30055046px;stroke-linecap:butt;stroke-linejoin:miter;stroke-opacity:1"
         transform="translate(-2046.5217,385.33725)"><flowRegion
           style="stroke-width:6.30055046px"
           id="flowRegion4181-9"><rect
             style="fill:#f7f6f5;stroke:#000000;stroke-width:39.69693756px;stroke-opacity:1"
             id="rect4183-2"
             width="6636.5356"
             height="3367.4551"
             x="3.1474392"
             y="-320.8739" /></flowRegion><flowPara
           id="flowPara4185-28"
           style="font-style:normal;font-variant:normal;font-weight:normal;font-stretch:normal;font-family:FontAwesome;-inkscape-font-specification:FontAwesome;fill:#f7f6f5;stroke:#000000;stroke-width:6.30055046px;stroke-opacity:1"></flowPara></flowRoot>      <flowRoot
         xml:space="preserve"
         id="flowRoot4179-3-8"
         style="font-style:normal;font-variant:normal;font-weight:normal;font-stretch:normal;font-size:497.61508179px;line-height:125%;font-family:Rachana;-inkscape-font-specification:Rachana;letter-spacing:0px;word-spacing:0px;fill:#f7f6f5;fill-opacity:1;stroke:#000000;stroke-width:2.76452804px;stroke-linecap:butt;stroke-linejoin:miter;stroke-opacity:1"
         transform="translate(-1842.0673,226.1851)"><flowRegion
           style="stroke-width:2.76452804px"
           id="flowRegion4181-5-7"><rect
             style="fill:#f7f6f5;stroke:#000000;stroke-width:7.6426158px;stroke-opacity:1"
             id="rect4183-6-9"
             width="2911.9502"
             height="1477.5573"
             x="1.382683"
             y="-140.79385" /></flowRegion><flowPara
           id="flowPara4185-2-2"
           style="font-style:normal;font-variant:normal;font-weight:normal;font-stretch:normal;font-family:FontAwesome;-inkscape-font-specification:FontAwesome;fill:#f7f6f5;stroke:#000000;stroke-width:2.76452804px;stroke-opacity:1"></flowPara></flowRoot>      <flowRoot
         xml:space="preserve"
         id="flowRoot4179-3-0"
         style="font-style:normal;font-variant:normal;font-weight:normal;font-stretch:normal;font-size:497.61508179px;line-height:125%;font-family:Rachana;-inkscape-font-specification:Rachana;letter-spacing:0px;word-spacing:0px;fill:#f7f6f5;fill-opacity:1;stroke:#000000;stroke-width:2.76452804px;stroke-linecap:butt;stroke-linejoin:miter;stroke-opacity:1"
         transform="matrix(0.70064342,0,0,0.70064342,-1955.5623,474.41369)"><flowRegion
           style="stroke-width:2.76452804px"
           id="flowRegion4181-5-9"><rect
             style="fill:#f7f6f5;stroke:#000000;stroke-width:7.6426158px;stroke-opacity:1"
             id="rect4183-6-3"
             width="2911.9502"
             height="1477.5573"
             x="1.382683"
             y="-140.79385" /></flowRegion><flowPara
           id="flowPara4185-2-6"
           style="font-style:normal;font-variant:normal;font-weight:normal;font-stretch:normal;font-family:FontAwesome;-inkscape-font-specification:FontAwesome;fill:#f7f6f5;stroke:#000000;stroke-width:2.76452804px;stroke-opacity:1"></flowPara></flowRoot>      <flowRoot
         xml:space="preserve"
         id="flowRoot4179-3"
         style="font-style:normal;font-variant:normal;font-weight:normal;font-stretch:normal;font-size:1134.09912109px;line-height:125%;font-family:Rachana;-inkscape-font-specification:Rachana;letter-spacing:0px;word-spacing:0px;fill:#f7f6f5;fill-opacity:1;stroke:#000000;stroke-width:6.30055046px;stroke-linecap:butt;stroke-linejoin:miter;stroke-opacity:1"
         transform="matrix(0.43877565,0,0,0.43877565,-2254.06,286.65605)"><flowRegion
           style="stroke-width:6.30055046px"
           id="flowRegion4181-5"><rect
             style="fill:#f7f6f5;stroke:#000000;stroke-width:39.69693756px;stroke-opacity:1"
             id="rect4183-6"
             width="6636.5356"
             height="3367.4551"
             x="3.1474392"
             y="-320.8739" /></flowRegion><flowPara
           id="flowPara4185-2"
           style="font-style:normal;font-variant:normal;font-weight:normal;font-stretch:normal;font-family:FontAwesome;-inkscape-font-specification:FontAwesome;fill:#f7f6f5;stroke:#000000;stroke-width:6.30055046px;stroke-opacity:1"></flowPara></flowRoot>      <flowRoot
         xml:space="preserve"
         id="flowRoot4179-3-0-0"
         style="font-style:normal;font-variant:normal;font-weight:normal;font-stretch:normal;font-size:348.65072632px;line-height:125%;font-family:Rachana;-inkscape-font-specification:Rachana;letter-spacing:0px;word-spacing:0px;fill:#f7f6f5;fill-opacity:1;stroke:#000000;stroke-width:1.93694842px;stroke-linecap:butt;stroke-linejoin:miter;stroke-opacity:1"
         transform="translate(-2433.1415,625.11734)"><flowRegion
           style="stroke-width:1.93694842px"
           id="flowRegion4181-5-9-6"><rect
             style="fill:#f7f6f5;stroke:#000000;stroke-width:3.75176907px;stroke-opacity:1"
             id="rect4183-6-3-2"
             width="2040.2388"
             height="1035.2407"
             x="0.96838349"
             y="-98.646645" /></flowRegion><flowPara
           id="flowPara4185-2-6-6"
           style="font-style:normal;font-variant:normal;font-weight:normal;font-stretch:normal;font-family:FontAwesome;-inkscape-font-specification:FontAwesome;fill:#f7f6f5;stroke:#000000;stroke-width:1.93694842px;stroke-opacity:1"></flowPara></flowRoot>      <flowRoot
         xml:space="preserve"
         id="flowRoot4179-3-9"
         style="font-style:normal;font-variant:normal;font-weight:normal;font-stretch:normal;font-size:497.61508179px;line-height:125%;font-family:Rachana;-inkscape-font-specification:Rachana;letter-spacing:0px;word-spacing:0px;fill:#f7f6f5;fill-opacity:1;stroke:#000000;stroke-width:2.76452804px;stroke-linecap:butt;stroke-linejoin:miter;stroke-opacity:1"
         transform="translate(-2747.7693,828.00637)"><flowRegion
           style="stroke-width:2.76452804px"
           id="flowRegion4181-5-1"><rect
             style="fill:#f7f6f5;stroke:#000000;stroke-width:7.6426158px;stroke-opacity:1"
             id="rect4183-6-2"
             width="2911.9502"
             height="1477.5573"
             x="1.382683"
             y="-140.79385" /></flowRegion><flowPara
           id="flowPara4185-2-7"
           style="font-style:normal;font-variant:normal;font-weight:normal;font-stretch:normal;font-family:FontAwesome;-inkscape-font-specification:FontAwesome;fill:#f7f6f5;stroke:#000000;stroke-width:2.76452804px;stroke-opacity:1"></flowPara></flowRoot>      <flowRoot
         xml:space="preserve"
         id="flowRoot4179-3-9-9"
         style="font-style:normal;font-variant:normal;font-weight:normal;font-stretch:normal;font-size:497.61508179px;line-height:125%;font-family:Rachana;-inkscape-font-specification:Rachana;letter-spacing:0px;word-spacing:0px;fill:#f7f6f5;fill-opacity:1;stroke:#000000;stroke-width:2.76452804px;stroke-linecap:butt;stroke-linejoin:miter;stroke-opacity:1"
         transform="translate(-2548.3845,1077.0701)"><flowRegion
           style="stroke-width:2.76452804px"
           id="flowRegion4181-5-1-7"><rect
             style="fill:#f7f6f5;stroke:#000000;stroke-width:7.6426158px;stroke-opacity:1"
             id="rect4183-6-2-3"
             width="2911.9502"
             height="1477.5573"
             x="1.382683"
             y="-140.79385" /></flowRegion><flowPara
           id="flowPara4185-2-7-6"
           style="font-style:normal;font-variant:normal;font-weight:normal;font-stretch:normal;font-family:FontAwesome;-inkscape-font-specification:FontAwesome;fill:#f7f6f5;stroke:#000000;stroke-width:2.76452804px;stroke-opacity:1"></flowPara></flowRoot>    </g>
  </g>
</svg>
