<?xml version="1.0" encoding="UTF-8" standalone="no"?>
<!-- Created with Inkscape (http://www.inkscape.org/) -->

<svg
   xmlns:dc="http://purl.org/dc/elements/1.1/"
   xmlns:cc="http://creativecommons.org/ns#"
   xmlns:rdf="http://www.w3.org/1999/02/22-rdf-syntax-ns#"
   xmlns:svg="http://www.w3.org/2000/svg"
   xmlns="http://www.w3.org/2000/svg"
   xmlns:sodipodi="http://sodipodi.sourceforge.net/DTD/sodipodi-0.dtd"
   xmlns:inkscape="http://www.inkscape.org/namespaces/inkscape"
   width="197.55556mm"
   height="197.55556mm"
   viewBox="0 0 700.00001 700.00001"
   id="svg6664"
   version="1.1"
   inkscape:version="0.91 r13725"
   sodipodi:docname="generators.svg"
   inkscape:export-filename="/home/kathyreid/Dropbox/PHPworkspace/pivotsummit-2016/img/generators.png"
   inkscape:export-xdpi="90"
   inkscape:export-ydpi="90">
  <defs
     id="defs6666" />
  <sodipodi:namedview
     id="base"
     pagecolor="#ffffff"
     bordercolor="#666666"
     borderopacity="1.0"
     inkscape:pageopacity="0.0"
     inkscape:pageshadow="2"
     inkscape:zoom="0.45388798"
     inkscape:cx="20.739266"
     inkscape:cy="64.604904"
     inkscape:document-units="px"
     inkscape:current-layer="layer1"
     showgrid="false"
     fit-margin-top="0"
     fit-margin-left="0"
     fit-margin-right="0"
     fit-margin-bottom="0"
     inkscape:window-width="1920"
     inkscape:window-height="1056"
     inkscape:window-x="0"
     inkscape:window-y="24"
     inkscape:window-maximized="1" />
  <metadata
     id="metadata6669">
    <rdf:RDF>
      <cc:Work
         rdf:about="">
        <dc:format>image/svg+xml</dc:format>
        <dc:type
           rdf:resource="http://purl.org/dc/dcmitype/StillImage" />
        <dc:title></dc:title>
      </cc:Work>
    </rdf:RDF>
  </metadata>
  <g
     inkscape:label="Layer 1"
     inkscape:groupmode="layer"
     id="layer1"
     transform="translate(-232.27699,224.20816)">
    <g
       transform="matrix(9.5998903,0,0,9.5998903,-43.43329,-3898.6591)"
       id="g10271"
       inkscape:export-xdpi="90"
       inkscape:export-ydpi="90">
      <g
         style="fill:#f7f6f5"
         transform="matrix(1.25,0,0,-1.25,65.178899,455.67718)"
         id="g6043">
        <path
           inkscape:connector-curvature="0"
           id="path6045"
           style="fill:#f7f6f5;fill-opacity:1;fill-rule:nonzero;stroke:none"
           d="M 0,0 C 16.109,0 29.167,13.059 29.167,29.167 29.167,45.276 16.109,58.334 0,58.334 -16.109,58.334 -29.167,45.276 -29.167,29.167 -29.167,13.059 -16.109,0 0,0" />
      </g>
      <g
         id="g10265">
        <text
           style="font-variant:normal;font-weight:800;font-stretch:normal;font-size:6.83737516px;font-family:'Montserrat Extra Bold';-inkscape-font-specification:Montserrat-ExtraBold;writing-mode:lr-tb;fill:#333333;fill-opacity:1;fill-rule:nonzero;stroke:none"
           id="text6047"
           x="37.368149"
           y="431.83643">
          <tspan
             x="37.368149 39.104843 43.138893 47.808819 51.972782 57.03244 61.1964 65.832146 69.996101 72.949165 77.099449 80.162598 84.559029 87.594826 91.252815"
             y="431.83643"
             sodipodi:role="line"
             id="tspan6049">‘TheGenerators’</tspan>
        </text>
        <g
           id="g6059"
           transform="matrix(1.25,0,0,-1.25,72.891399,399.55305)"
           style="fill:#333333">
          <path
             d="m 0,0 c 0.453,0 0.896,0.119 1.285,0.352 l 3.692,2.182 0,1.02 -4.154,-2.42 C 0.508,0.951 0.151,0.855 -0.21,0.86 l -5.498,0.064 c -0.275,0.1 -0.494,0.165 -0.576,0.196 -1.72,0.385 -3.065,0.234 -3.98,-0.013 -0.686,-0.183 -1.418,-0.115 -2.067,0.183 l -4.986,2.287 0,-9.139 0.517,-0.284 c 0.764,-0.416 1.372,-1.061 1.752,-1.843 l -0.293,-0.238 c -0.786,-0.571 -0.956,-1.678 -0.439,-2.46 0.288,-0.38 0.695,-0.622 1.162,-0.705 0.055,-0.004 0.137,-0.009 0.197,-0.009 0.169,-0.009 0.333,0.009 0.475,0.032 0.01,-0.393 0.101,-0.732 0.334,-1.052 0.311,-0.434 0.805,-0.631 1.336,-0.658 0.137,-0.01 0.279,-0.014 0.389,-0.023 -0.051,-0.417 0.068,-0.842 0.329,-1.19 0.288,-0.379 0.695,-0.622 1.162,-0.704 0.055,-0.005 0.137,-0.009 0.196,-0.009 0.417,-0.023 0.814,0.096 1.135,0.329 l 0.173,0.133 c 0.041,-0.252 0.115,-0.48 0.27,-0.686 0.234,-0.32 0.586,-0.535 1.002,-0.613 0.055,-0.005 0.11,-0.005 0.169,-0.009 0.334,-0.019 0.673,0.077 0.965,0.283 l 0.028,0 0.206,-0.288 c 0.361,-0.521 1.111,-0.645 1.632,-0.284 0.435,0.312 0.609,0.92 0.412,1.405 l 0.037,-0.055 c 0.343,-0.508 0.992,-0.727 1.559,-0.494 0.627,0.256 0.878,0.933 0.714,1.514 0.421,-0.471 1.143,-0.563 1.665,-0.201 l 0.027,0.027 c 0.522,0.361 0.672,1.052 0.394,1.601 0.452,-0.416 1.175,-0.48 1.696,-0.119 0.609,0.444 0.769,1.299 0.325,1.912 l -0.649,0.928 1.413,1.647 c 0.371,0.434 0.814,0.8 1.308,1.088 l 0.696,0.403 0,1.089 L 4.016,-5.64 C 3.467,-5.951 2.973,-6.353 2.561,-6.833 L 1.043,-8.594 c -0.453,0.416 -1.176,0.48 -1.697,0.119 -0.608,-0.444 -0.768,-1.299 -0.325,-1.912 l 0.023,-0.06 -0.027,0 c -0.43,0.302 -1.016,0.334 -1.478,0.023 l -0.027,-0.027 C -2.895,-10.735 -3.087,-11.229 -3,-11.709 l -0.147,-0.105 c -0.407,0.214 -0.91,0.214 -1.317,-0.069 -0.375,-0.261 -0.567,-0.723 -0.535,-1.143 l -0.403,-0.257 c -0.301,0.073 -0.64,0.005 -0.901,-0.173 -0.32,-0.234 -0.507,-0.618 -0.498,-0.979 l -0.202,-0.128 c -0.119,-0.106 -0.315,-0.151 -0.48,-0.115 -0.164,0.037 -0.329,0.128 -0.434,0.275 -0.106,0.119 -0.151,0.315 -0.115,0.48 0.037,0.165 0.128,0.329 0.275,0.435 l 2.181,1.642 c 0.115,0.077 0.179,0.187 0.183,0.324 0.014,0.252 -0.201,0.467 -0.448,0.467 -0.096,0 -0.174,-0.023 -0.256,-0.069 l -3.485,-2.525 c -0.201,-0.128 -0.43,-0.201 -0.677,-0.16 -0.247,0.042 -0.467,0.165 -0.595,0.366 -0.288,0.38 -0.201,0.961 0.206,1.244 l 4.153,2.964 c 0.092,0.083 0.156,0.197 0.156,0.348 0.004,0.238 -0.192,0.439 -0.43,0.448 -0.138,0.005 -0.247,-0.046 -0.339,-0.151 l -4.066,-2.941 c -0.114,-0.05 -0.174,-0.132 -0.261,-0.21 -0.489,-0.311 -1.212,-0.243 -1.472,0.105 -0.261,0.375 -0.206,0.878 0.118,1.194 l 0.408,0.283 4.518,3.083 c 0.115,0.078 0.179,0.188 0.183,0.325 0.01,0.151 -0.063,0.293 -0.187,0.38 -0.16,0.114 -0.32,0.118 -0.49,0.018 l -4.839,-3.289 c -0.032,-0.055 -0.087,-0.077 -0.119,-0.105 l -0.466,-0.339 c -0.38,-0.288 -0.961,-0.201 -1.244,0.206 -0.288,0.38 -0.201,0.961 0.206,1.244 l 9.125,6.72 c 0.731,-0.431 1.271,-1.295 1.271,-1.295 0.897,-2.808 2.013,-2.831 2.689,-2.493 0.353,0.174 0.513,0.59 0.389,0.965 -0.356,1.084 -0.562,3.184 -0.562,3.184 -0.252,0.544 -1.057,1.116 -1.953,1.582 L -0.928,-0.018 0,0 Z"
             style="fill:#333333;fill-opacity:1;fill-rule:nonzero;stroke:none"
             id="path6061"
             inkscape:connector-curvature="0" />
        </g>
      </g>
    </g>
  </g>
</svg>
