<?xml version="1.0" encoding="UTF-8" standalone="no"?>
<!-- Created with Inkscape (http://www.inkscape.org/) -->

<svg
   xmlns:dc="http://purl.org/dc/elements/1.1/"
   xmlns:cc="http://creativecommons.org/ns#"
   xmlns:rdf="http://www.w3.org/1999/02/22-rdf-syntax-ns#"
   xmlns:svg="http://www.w3.org/2000/svg"
   xmlns="http://www.w3.org/2000/svg"
   xmlns:sodipodi="http://sodipodi.sourceforge.net/DTD/sodipodi-0.dtd"
   xmlns:inkscape="http://www.inkscape.org/namespaces/inkscape"
   width="197.55556mm"
   height="197.55556mm"
   viewBox="0 0 700.00001 700"
   id="svg8550"
   version="1.1"
   inkscape:version="0.91 r13725"
   sodipodi:docname="informers.svg"
   inkscape:export-filename="/home/kathyreid/Dropbox/PHPworkspace/pivotsummit-2016/img/informers.png"
   inkscape:export-xdpi="90"
   inkscape:export-ydpi="90">
  <defs
     id="defs8552" />
  <sodipodi:namedview
     id="base"
     pagecolor="#ffffff"
     bordercolor="#666666"
     borderopacity="1.0"
     inkscape:pageopacity="0.0"
     inkscape:pageshadow="2"
     inkscape:zoom="0.45388798"
     inkscape:cx="124.95434"
     inkscape:cy="-27.749365"
     inkscape:document-units="px"
     inkscape:current-layer="layer1"
     showgrid="false"
     fit-margin-top="0"
     fit-margin-left="0"
     fit-margin-right="0"
     fit-margin-bottom="0"
     inkscape:window-width="1920"
     inkscape:window-height="1056"
     inkscape:window-x="0"
     inkscape:window-y="24"
     inkscape:window-maximized="1" />
  <metadata
     id="metadata8555">
    <rdf:RDF>
      <cc:Work
         rdf:about="">
        <dc:format>image/svg+xml</dc:format>
        <dc:type
           rdf:resource="http://purl.org/dc/dcmitype/StillImage" />
        <dc:title></dc:title>
      </cc:Work>
    </rdf:RDF>
  </metadata>
  <g
     inkscape:label="Layer 1"
     inkscape:groupmode="layer"
     id="layer1"
     transform="translate(-86.614467,195.38716)">
    <g
       transform="matrix(9.5998903,0,0,9.5998903,-2497.0978,-3869.8381)"
       id="g10322">
      <g
         style="fill:#f7f6f5"
         transform="matrix(1.25,0,0,-1.25,305.59852,455.67718)"
         id="g6185">
        <path
           inkscape:connector-curvature="0"
           id="path6187"
           style="fill:#f7f6f5;fill-opacity:1;fill-rule:nonzero;stroke:none"
           d="M 0,0 C 16.109,0 29.167,13.059 29.167,29.167 29.167,45.276 16.109,58.334 0,58.334 -16.109,58.334 -29.167,45.276 -29.167,29.167 -29.167,13.059 -16.109,0 0,0" />
      </g>
      <g
         id="g10316">
        <text
           style="font-variant:normal;font-weight:800;font-stretch:normal;font-size:6.83737516px;font-family:'Montserrat Extra Bold';-inkscape-font-specification:Montserrat-ExtraBold;writing-mode:lr-tb;fill:#333333;fill-opacity:1;fill-rule:nonzero;stroke:none"
           id="text6189"
           x="279.20328"
           y="431.8363">
          <tspan
             x="279.20328 280.93997 284.97403 289.64395 293.80789 295.3053 297.53427 302.17001 304.89813 309.29456 312.33035 319.40021 323.56415 326.59995 330.25793"
             y="431.8363"
             sodipodi:role="line"
             id="tspan6191">‘The Informers’</tspan>
        </text>
        <g
           id="g6201"
           transform="matrix(1.25,0,0,-1.25,318.48327,401.36605)"
           style="fill:#333333">
          <path
             d="M 0,0 C -0.178,0.239 -0.43,0.422 -0.754,0.55 -0.736,0.251 -0.758,0.008 -0.818,-0.179 l -3.832,-12.61 c -0.069,-0.221 -0.218,-0.398 -0.448,-0.529 -0.229,-0.132 -0.467,-0.199 -0.715,-0.199 l -11.792,0 c -1.022,0 -1.634,0.298 -1.839,0.894 -0.085,0.231 -0.081,0.414 0.013,0.55 0.094,0.128 0.255,0.192 0.485,0.192 l 11.102,0 c 0.792,0 1.34,0.147 1.642,0.441 0.303,0.294 0.607,0.948 0.914,1.96 l 3.499,11.576 c 0.188,0.63 0.112,1.183 -0.229,1.66 -0.341,0.477 -0.826,0.716 -1.456,0.716 l -9.723,0 c -0.111,0 -2.027,0 -2.9,-2.16 -0.032,-0.078 -4.713,-13.443 -4.713,-13.478 -0.188,-0.511 -0.18,-1.052 0.025,-1.622 0.238,-0.665 0.662,-1.224 1.271,-1.681 0.609,-0.455 1.241,-0.682 1.897,-0.682 l 11.792,0 c 0.554,0 1.075,0.185 1.565,0.555 0.489,0.371 0.815,0.828 0.977,1.374 L 0.23,-1.648 C 0.417,-1.034 0.341,-0.485 0,0 m -13.592,-0.025 0.267,0.817 c 0.035,0.111 0.105,0.206 0.211,0.288 0.106,0.081 0.215,0.121 0.326,0.121 l 7.768,0 c 0.119,0 0.204,-0.04 0.255,-0.121 0.051,-0.082 0.06,-0.177 0.026,-0.288 l -0.268,-0.817 c -0.035,-0.111 -0.105,-0.207 -0.212,-0.288 -0.106,-0.081 -0.215,-0.121 -0.325,-0.121 l -7.768,0 c -0.119,0 -0.204,0.04 -0.255,0.121 -0.052,0.081 -0.06,0.177 -0.025,0.288 m -1.061,-3.271 0.268,0.818 c 0.034,0.111 0.104,0.206 0.211,0.287 0.107,0.081 0.215,0.122 0.326,0.122 l 7.767,0 c 0.12,0 0.205,-0.041 0.256,-0.122 0.05,-0.081 0.06,-0.176 0.025,-0.287 l -0.269,-0.818 c -0.033,-0.11 -0.104,-0.206 -0.21,-0.287 -0.107,-0.081 -0.215,-0.122 -0.325,-0.122 l -7.768,0 c -0.119,0 -0.204,0.041 -0.256,0.122 -0.05,0.081 -0.059,0.177 -0.025,0.287"
             style="fill:#333333;fill-opacity:1;fill-rule:nonzero;stroke:none"
             id="path6203"
             inkscape:connector-curvature="0" />
        </g>
      </g>
    </g>
  </g>
</svg>
