<?xml version="1.0" encoding="UTF-8" standalone="no"?>
<!-- Created with Inkscape (http://www.inkscape.org/) -->

<svg
   xmlns:dc="http://purl.org/dc/elements/1.1/"
   xmlns:cc="http://creativecommons.org/ns#"
   xmlns:rdf="http://www.w3.org/1999/02/22-rdf-syntax-ns#"
   xmlns:svg="http://www.w3.org/2000/svg"
   xmlns="http://www.w3.org/2000/svg"
   xmlns:sodipodi="http://sodipodi.sourceforge.net/DTD/sodipodi-0.dtd"
   xmlns:inkscape="http://www.inkscape.org/namespaces/inkscape"
   width="197.55556mm"
   height="197.55556mm"
   viewBox="0 0 700.00001 700"
   id="svg10488"
   version="1.1"
   inkscape:version="0.91 r13725"
   sodipodi:docname="technologist.svg"
   inkscape:export-filename="/home/kathyreid/Dropbox/PHPworkspace/pivotsummit-2016/img/technologist.png"
   inkscape:export-xdpi="90"
   inkscape:export-ydpi="90">
  <defs
     id="defs10490" />
  <sodipodi:namedview
     id="base"
     pagecolor="#ffffff"
     bordercolor="#666666"
     borderopacity="1.0"
     inkscape:pageopacity="0.0"
     inkscape:pageshadow="2"
     inkscape:zoom="0.64189453"
     inkscape:cx="543.87925"
     inkscape:cy="196.5865"
     inkscape:document-units="px"
     inkscape:current-layer="layer1"
     showgrid="false"
     fit-margin-top="0"
     fit-margin-left="0"
     fit-margin-right="0"
     fit-margin-bottom="0"
     inkscape:window-width="1920"
     inkscape:window-height="1056"
     inkscape:window-x="0"
     inkscape:window-y="24"
     inkscape:window-maximized="1" />
  <metadata
     id="metadata10493">
    <rdf:RDF>
      <cc:Work
         rdf:about="">
        <dc:format>image/svg+xml</dc:format>
        <dc:type
           rdf:resource="http://purl.org/dc/dcmitype/StillImage" />
        <dc:title></dc:title>
      </cc:Work>
    </rdf:RDF>
  </metadata>
  <g
     inkscape:label="Layer 1"
     inkscape:groupmode="layer"
     id="layer1"
     transform="translate(318.43653,531.89109)">
    <g
       transform="matrix(9.5998903,0,0,9.5998903,-2477.5613,-4861.1517)"
       id="g10415">
      <g
         style="fill:#f7f6f5"
         transform="matrix(1.25,0,0,-1.25,261.37015,523.8873)"
         id="g6107">
        <path
           inkscape:connector-curvature="0"
           id="path6109"
           style="fill:#f7f6f5;fill-opacity:1;fill-rule:nonzero;stroke:none"
           d="M 0,0 C 16.109,0 29.167,13.059 29.167,29.167 29.167,45.276 16.109,58.334 0,58.334 -16.109,58.334 -29.167,45.276 -29.167,29.167 -29.167,13.059 -16.109,0 0,0" />
      </g>
      <g
         id="g10403">
        <text
           style="font-variant:normal;font-weight:800;font-stretch:normal;font-size:6.83737516px;font-family:'Montserrat Extra Bold';-inkscape-font-specification:Montserrat-ExtraBold;writing-mode:lr-tb;fill:#333333;fill-opacity:1;fill-rule:nonzero;stroke:none"
           id="text6111"
           x="229.02303"
           y="500.04642">
          <tspan
             x="229.02303 230.62297 234.52026 239.05345 243.08066 244.4413 248.17451 252.20172 255.90758 260.44077 264.93976 269.19943 271.35321 275.61288 279.92728 282.00583 285.5271 288.46033 291.98157"
             y="500.04642"
             sodipodi:role="line"
             id="tspan6113">‘The Technologists’</tspan>
        </text>
        <g
           id="g6123"
           transform="matrix(1.25,0,0,-1.25,277.24402,485.63043)"
           style="fill:#333333">
          <path
             d="m 0,0 -0.578,0 0,15.007 c 0,1.274 -1.034,2.308 -2.308,2.308 l -19.623,0 c -1.277,0 -2.311,-1.034 -2.311,-2.308 l 0,-15.007 -0.575,0 c -0.64,0 -1.155,-0.516 -1.155,-1.152 0,-0.637 0.515,-1.156 1.155,-1.156 l 25.395,0 c 0.637,0 1.152,0.519 1.152,1.156 C 1.152,-0.516 0.637,0 0,0 m -22.509,15.007 19.623,0 0,-12.699 -19.623,0 0,12.699 z"
             style="fill:#333333;fill-opacity:1;fill-rule:nonzero;stroke:none"
             id="path6125"
             inkscape:connector-curvature="0" />
        </g>
        <g
           id="g6127"
           transform="matrix(1.25,0,0,-1.25,258.07677,478.17718)">
          <path
             d="m 0,0 c -0.145,0 -0.29,0.049 -0.41,0.148 l -2.476,2.055 c -0.147,0.123 -0.232,0.303 -0.232,0.495 0,0.191 0.085,0.372 0.232,0.494 L -0.41,5.247 C -0.137,5.474 0.268,5.436 0.495,5.164 0.721,4.89 0.684,4.485 0.411,4.258 L -1.47,2.698 0.411,1.137 C 0.684,0.91 0.721,0.505 0.495,0.232 0.368,0.079 0.184,0 0,0"
             style="fill:#ffffff;fill-opacity:1;fill-rule:nonzero;stroke:none"
             id="path6129"
             inkscape:connector-curvature="0" />
        </g>
        <g
           id="g6131"
           transform="matrix(1.25,0,0,-1.25,264.66365,478.17718)">
          <path
             d="m 0,0 c -0.185,0 -0.368,0.079 -0.495,0.232 -0.226,0.273 -0.189,0.679 0.084,0.905 L 1.47,2.698 -0.411,4.259 c -0.273,0.226 -0.31,0.631 -0.084,0.905 0.227,0.272 0.632,0.31 0.905,0.083 L 2.886,3.192 C 3.033,3.07 3.118,2.889 3.118,2.698 3.118,2.507 3.033,2.326 2.886,2.203 L 0.41,0.148 C 0.29,0.049 0.144,0 0,0"
             style="fill:#ffffff;fill-opacity:1;fill-rule:nonzero;stroke:none"
             id="path6133"
             inkscape:connector-curvature="0" />
        </g>
        <g
           id="g6135"
           transform="matrix(1.25,0,0,-1.25,259.8949,480.70405)">
          <path
             d="M 0,0 C -0.059,0 -0.119,0.009 -0.179,0.026 -0.52,0.124 -0.716,0.48 -0.617,0.821 l 2.36,8.153 C 1.842,9.315 2.198,9.511 2.539,9.413 2.88,9.314 3.076,8.958 2.978,8.617 L 0.617,0.464 C 0.536,0.183 0.279,0 0,0"
             style="fill:#ffffff;fill-opacity:1;fill-rule:nonzero;stroke:none"
             id="path6137"
             inkscape:connector-curvature="0" />
        </g>
      </g>
    </g>
  </g>
</svg>
